M48
;Layer_Color=9474304
;FILE_FORMAT=2:5
INCH,LZ
;TYPE=PLATED
T1F00S00C0.01000
T2F00S00C0.01181
T3F00S00C0.02800
T4F00S00C0.03200
T5F00S00C0.03543
T6F00S00C0.04000
T7F00S00C0.15000
%
T01
X0017008Y0004882
X0027008
X0037008
X0047008
X0057008
X0067008
X0077008
X0072008Y0014882
X0062008
X0052008
X0042008
X0032008
X0022008
X0017008Y0024882
X0007008
X0012008Y0034882
X0022008
X0032008
X0037008Y0044882
X0047008
X0057008
X0067008
X0077008
X0087008
Y0064882
X0077008
X0067008
X0057008
X0047008
X0052008Y0074882
X0062008
X0067008Y0084882
X0077008
X0087008
X0082008Y0094882
X0072008
X0052008
X0042008
X0032008
X0037008Y0084882
X0047008
X0057008
X0042008Y0074882
X0027008Y0084882
Y0064882
X0017008
Y0044882
X0027008
X0052008Y0034882
X0047008Y0024882
X0067008
X0072008Y0034882
X0087008Y0024882
X0092008Y0014882
X0102008
X0112008
X0132008
X0142008
X0152008
X0162008
X0172008
X0182008
X0192008
X0197008Y0024882
X0207008
X0227008
X0237008
X0247008Y0004882
Y0064882
X0237008
X0227008
X0217008
X0222008Y0074882
X0212008
X0202008
X0197008Y0064882
X0187008
X0177008
X0167008
X0157008
Y0044882
X0167008
X0177008
X0187008
X0197008
X0207008
X0222008Y0054882
X0232008
X0237008Y0084882
X0227008
X0217008
X0222008Y0094882
X0195978Y0094014
X0189487Y0094063
X0184394Y0094113
X01795Y0094263
X0174559Y0094324
X0142008Y0094882
X0132008
X0137008Y0064882
X0127008
X0117008
Y0044882
X0127008
X0147008
X0142008Y0034882
X0162008
X0172008
X0182008
X0187008Y0024882
X0127008
X0107008Y0044882
X0097008
Y0064882
X0102008Y0074882
X0097008Y0084882
X0257008
X0262008Y0094882
X0252008
X0257008Y0064882
X0252008Y0054882
X0257008Y0124882
Y0144882
X0247008
X0237008
Y0124882
X0232008Y0114882
X0222008
X0212008
X0202008
X0207008Y0104882
X0187008
X0177008
X0172008Y0114882
Y0134882
X0182008
X018739Y0128191
X0193402
X0199413
X0205425
X0211437
X0207008Y0144882
X0197008
X0187008
X0177008
X0182008Y0154882
X0192008
X0212008
X0222008
Y0174882
X0232008
X0242008
X0212008
X0207008Y0164882
X0192008Y0174882
X0182008
X0187008Y0184882
X0167008
X0157008
X0147008
X0137008
X0127008
X0132008Y0174882
X0142008
X0152008
X0157008Y0164882
X0137008
X0127008
X0122008Y0174882
X0112008
X0102008
X0107008Y0184882
X0097008
X0102008Y0154882
X0112008
X0117008Y0144882
X0107008
X0102008Y0134882
X0107008Y0124882
X0117008
X0097008
Y0104882
X0107008
X0152008Y0114882
X0132008Y0134882
X0137008Y0144882
X0142008Y0154882
X0092008
X0082008
X0072008
X0077008Y0144882
X0087008
X0092008Y0134882
X0082008
X0072008
X0062008
X0067008Y0144882
X0057008
X0047008
X0037008
X0027008
X0017008
X0007008
X0012008Y0154882
X0017008Y0164882
X0027008
X0037008
X0047008
X0052008Y0154882
X0042008
X0032008
Y0174882
X0042008
X0072008
X0082008
X0092008
X0087008Y0184882
X0077008
X0067008Y0164882
Y0124882
X0087008
Y0104882
X0077008
X0067008
X0057008
X0047008
X0052008Y0114882
X0042008
X0032008
X0022008
X0012008
X0017008Y0104882
X0022008Y0134882
X0032008
X0042008
X0037008Y0124882
X0007008Y0164882
T02
X0035365Y0028199
X004283Y0025856
X0078332Y0073801
X0103998Y0071197
X0112575Y0089312
X0112809Y0096724
X0111142Y010062
X0127257Y0098884
X0129717Y0090516
X0136585Y0091172
X0136452Y0087437
X0145525Y009825
X0151864Y008048
X0156357Y0079816
X0152309Y0065387
X0142062Y0052267
X0131128Y0050129
X0196769Y0055794
X0201202Y002418
X0208264Y0099135
X0264685Y0098874
X0159694Y0107706
X0157095Y0125087
X0133774Y0119948
X0125687Y012
X0119717Y0119416
X0116784Y0117919
X0113808Y0115822
X011133Y01088
X0111775Y0104278
X0126442Y0102431
X0128796Y0104887
X013488Y0107311
X0142581Y0144168
X0145397Y0146769
X016057Y0151477
X0168278Y0151233
X0185495Y015134
X0160047Y0160637
X0150137Y0168534
X0143769Y0168829
X0089384Y0164376
X00764Y016856
X0090155Y012108
X0067235Y0114455
T03
X0081945Y0012023
T04
X0108072Y0150445
X0118072
T05
X0010177Y0067499
Y0077499
Y0087499
Y0097499
X0262412Y0114864
Y0124864
Y0134864
Y0144864
Y0154864
Y0164864
X0244864Y018589
X0234864
X0224864
X0214864
X0204864
X0191829Y0186009
X0181829
X0171829
X0161829
X0151829
X0141829
X0131829
X0121829
X0026693Y0138543
X0016693
X0006693
Y0128543
X0016693
X0026693
T06
X0038695Y0184903
X0048695
X0058695
X0068695
T07
X02623Y0013281
X0262309Y018359
X0013558Y0183296
M30
