M48
;Layer_Color=9474304
;FILE_FORMAT=2:5
INCH,LZ
;TYPE=PLATED
T1F00S00C0.00800
T2F00S00C0.01000
T5F00S00C0.03200
T6F00S00C0.03400
T7F00S00C0.03543
T8F00S00C0.04000
T9F00S00C0.11811
%
T01
X0046143Y00413
X0046001Y0043325
X0130685Y0040571
X0153159Y0035026
X0154573Y0033612
X0143511Y0063463
X0167925Y0061783
X017774Y0061856
X017687Y0085232
X017036Y0085161
X0168813Y0087747
X0166868Y0089937
X0164971Y0091989
X0163565Y0094784
X0162022Y0096748
X0159324Y0098721
X0097354Y0096752
X0224445Y0094857
X0235889Y0095953
X0249414Y0096235
X0259909Y0082457
X0267138Y0055562
X020389Y0124183
X0201484Y0124165
X019824Y0124293
X0194954Y0124165
X0175239Y0127131
X015479Y0112731
X0142943Y010207
X0143509Y014029
X0141555Y0141558
X0139371Y0141796
X0135756Y0138397
X0163724Y0151115
X0198922Y0152473
X0202357Y0152617
X0207392Y015242
X0212007Y0152416
X0216415Y0152557
X0105796Y0104657
X0100345Y0103751
X009112Y0102877
X008531Y0101926
X0035408Y015488
X0062322Y0190457
X006445Y0192197
T02
X0007008Y0024882
X0017008
X0022008Y0014882
X0032008
X0042008
X0052008
X0057008Y0024882
X0067008
X0077008
X0087008
X0082008Y0034882
X0072008
X0062008
X0052008
X0047008Y0024882
X0037008
X0029949Y0030512
X0026899Y0056934
X0022008Y0054882
X0027008Y0064882
X0037008
X0047008
X0057008
X0062008Y0054882
X0072008
X0077008Y0064882
X0075785Y0068169
X0072008Y0074882
X0077008Y0084882
X0087008
Y0064882
X0092149Y0045163
X0087008Y0004882
X0077008
X0052008Y0054882
X0042008
Y0074882
X0052008
X0057008Y0084882
X0067008
X0072008Y0094882
X0052008
X0032008
X0022008
X0027008Y0084882
X0037008
X0032008Y0074882
X0022008
X0017008Y0084882
X0097008
X0107008
X0102008Y0074882
X0107008Y0064882
X0117008
X0122008Y0054882
X0132008
X0142008
X0147008Y0064882
X0157008
X0167008
X0162008Y0074882
X0147524Y0075821
X0142008Y0074882
Y0094882
X011499Y0092796
X0112008Y0054882
X0102008
X0097008Y0064882
Y0024882
X0107008
X0117008
X0147008
X0157008
X0167008
X0177008
X0182008Y0034882
Y0054882
X0192008
X0204836Y0054837
X0199337Y0046376
X0207008Y0024882
X021529Y0022212
X0227008Y0024882
X0237092Y0024909
X0232008Y0034882
Y0074882
X022796Y0081276
X0227008Y0084882
X0217008
X0222008Y0094882
X0232008
X0202008
Y0074882
X0192008
X0182008
X0162008Y0054882
X0157008Y0044882
X0127433Y0046824
X0137008Y0004882
X0157008
X0167008
X0177008
X0182008Y0014882
X0192008
X0202008
X0172008
X0152008
X0107008Y0004882
X0097008
X0247008
X0257008
X0252008Y0034882
X0272008
Y0054882
X0262008
X0252008
Y0074882
X0262008
X0272008
Y0094882
X0262008
X0252008
X0257008Y0084882
Y0124882
X0252008Y0134882
X0257008Y0144882
X0272008Y0154882
X0267008Y0164882
X0272008Y0174882
X0262008
X0242008
X0237008Y0164882
X0222008Y0174882
X0212008
X0207008Y0164882
X0197008Y0184882
X0187008
X0182008Y0174882
X0172008
X0182008Y0154882
X0177008Y0144882
X0167008
X016034Y0147083
X0162008Y0134882
X0157008Y0124882
X0147008
X0146134Y014708
X0122008Y0154882
X0112008
X0102008
X0107008Y0164882
X0117008
X0127008
X0132008Y0174882
X0122008
X0112008
X0102008
X0097008Y0184882
Y0164882
Y0124882
X0107008
X0125813Y0119717
X0122008Y0114882
X0114808Y0108456
X0127008Y0104882
X0137008
X0158701Y0111492
X0162008Y0114882
X0172008
X0182008
X0192008
X0211941Y0113707
X0219757Y011623
X0224277Y0115887
X0242008Y0134882
X0247008Y0144882
X0182008Y0134882
X0177008Y0124882
X0122008Y0134882
X0097008Y0104882
X0087008
X0077008
X0067008
X0057008
X0047008
X0037008
X0032008Y0114882
X0037008Y0124882
X0047008
X0052008Y0134882
X0042008
X0032008
X0022008
X0012008
X0007008Y0144882
X0012008Y0154882
X0017008Y0164882
X0027008
X0037008
X0047008
X0057008
X0067008
X0077008
X0087008
X0092008Y0174882
X0082008
X0072008
X0062008
X0052008
X0042008
X0032008
X0027008Y0184882
X0012008Y0174882
X0007008Y0164882
X0027008Y0144882
X0037008
X0047008
X0057008
X0067008
X0072008Y0154882
X0082008
X0092008
X0087008Y0144882
X0092008Y0134882
X0087008Y0124882
X0077008
X0067008
X0072008Y0134882
X0092008Y0114882
X0052008
X0027008Y0124882
X0007008
X0012008Y0114882
X0017008Y0104882
X0007008
X0077008Y0184882
X0087008
T05
X0107965Y014166
X0117965
T06
X0060786Y0135266
X0080786
T07
X004561Y000876
X005561
X0010177Y0067499
Y0077499
Y0087499
Y0097499
X0165295Y001063
X0175295
X0185295
X0195295
X0205295
X0262412Y0114864
Y0124864
Y0134864
Y0144864
Y0154864
Y0164864
X0244864Y018589
X0234864
X0224864
X0214864
X0204864
X017702Y0184831
X016702
X015702
X014702
X013702
X012702
X011702
X010702
X0214272Y014428
Y013428
Y0124279
X0224272
Y013428
Y014428
X0027302Y0139997
Y0129998
X0017302
X0007302
Y0139997
X0017302
T08
X0038695Y0184903
X0048695
X0058695
X0068695
T09
X0011811Y0011811
X0263779
Y0185039
X0011811
M30
