G04*
G04 #@! TF.GenerationSoftware,Altium Limited,Altium Designer,18.1.6 (161)*
G04*
G04 Layer_Color=32896*
%FSLAX25Y25*%
%MOIN*%
G70*
G01*
G75*
%ADD10C,0.00787*%
%ADD11C,0.00700*%
%ADD14C,0.01000*%
%ADD83R,0.09200X0.02900*%
D10*
X235835Y58846D02*
Y65946D01*
X230389Y58846D02*
X235835D01*
X230389Y65946D02*
X235835D01*
X222056D02*
X227338D01*
X222056Y58846D02*
Y65946D01*
Y58846D02*
X227338D01*
X263474Y72895D02*
X270574D01*
Y67449D02*
Y72895D01*
X263474Y67449D02*
Y72895D01*
Y59115D02*
Y64398D01*
Y59115D02*
X270574D01*
Y64398D01*
X263271Y93328D02*
X270371D01*
Y87883D02*
Y93328D01*
X263271Y87883D02*
Y93328D01*
Y79549D02*
Y84831D01*
Y79549D02*
X270371D01*
Y84831D01*
X232228Y78110D02*
X239328D01*
X232228D02*
Y83556D01*
X239328Y78110D02*
Y83556D01*
Y86607D02*
Y91890D01*
X232228D02*
X239328D01*
X232228Y86607D02*
Y91890D01*
X246392Y79437D02*
X253492D01*
X246392D02*
Y84883D01*
X253492Y79437D02*
Y84883D01*
Y87934D02*
Y93217D01*
X246392D02*
X253492D01*
X246392Y87934D02*
Y93217D01*
X248040Y152739D02*
Y168139D01*
X241540Y152739D02*
X248040D01*
X241440Y168139D02*
X248040D01*
X241440Y152739D02*
Y168139D01*
X231366Y117011D02*
Y132411D01*
X237866D01*
X231366Y117011D02*
X237966D01*
Y132411D01*
X80616Y72484D02*
X96016D01*
X80616D02*
Y78984D01*
X96016Y72484D02*
Y79084D01*
X80616D02*
X96016D01*
X141686Y157807D02*
Y173207D01*
X135086Y157807D02*
X141686D01*
X135086Y173207D02*
X141586D01*
X135086Y157807D02*
Y173207D01*
X238069Y146670D02*
X244467D01*
X238069Y136434D02*
X244467D01*
Y138206D01*
Y144898D02*
Y146670D01*
X13491Y109053D02*
X28892D01*
X13491D02*
Y115653D01*
X28892Y109153D02*
Y115653D01*
X13491D02*
X28892D01*
X13779Y158180D02*
X29179D01*
Y151580D02*
Y158180D01*
X13779Y151580D02*
Y158080D01*
Y151580D02*
X29179D01*
X170159Y157807D02*
Y173207D01*
X163559Y157807D02*
X170159D01*
X163559Y173207D02*
X170059D01*
X163559Y157807D02*
Y173207D01*
X184396Y157807D02*
Y173207D01*
X177796Y157807D02*
X184396D01*
X177796Y173207D02*
X184296D01*
X177796Y157807D02*
Y173207D01*
X155923Y157807D02*
Y173207D01*
X149323Y157807D02*
X155923D01*
X149323Y173207D02*
X155823D01*
X149323Y157807D02*
Y173207D01*
X137795Y11808D02*
Y3937D01*
Y7873D01*
X136483Y9185D01*
X133860D01*
X132548Y7873D01*
Y3937D01*
X129924Y1313D02*
Y9185D01*
X125988D01*
X124676Y7873D01*
Y5249D01*
X125988Y3937D01*
X129924D01*
X122052Y1313D02*
Y9185D01*
X118117D01*
X116805Y7873D01*
Y5249D01*
X118117Y3937D01*
X122052D01*
X114181Y9185D02*
X108933D01*
X114181Y3937D01*
X108933D01*
X106309Y11808D02*
Y3937D01*
X102374D01*
X101062Y5249D01*
Y6561D01*
Y7873D01*
X102374Y9185D01*
X106309D01*
X98438D02*
Y3937D01*
Y6561D01*
X97126Y7873D01*
X95814Y9185D01*
X94502D01*
D11*
X228029Y65106D02*
X229829D01*
X228029Y59706D02*
X229829D01*
X264314Y65089D02*
Y66889D01*
X269714Y65089D02*
Y66889D01*
X264110Y85522D02*
Y87322D01*
X269511Y85522D02*
Y87322D01*
X238488Y84116D02*
Y85916D01*
X233088Y84116D02*
Y85916D01*
X252652Y85443D02*
Y87243D01*
X247252Y85443D02*
Y87243D01*
X112765Y163660D02*
Y172260D01*
X108365Y163560D02*
X116965D01*
X108365Y155860D02*
X116965D01*
X112865Y147260D02*
Y155860D01*
X105465Y151660D02*
X107965D01*
X105465D02*
Y176160D01*
X119965D01*
Y151660D02*
Y176160D01*
X117965Y151660D02*
X119965D01*
X107965Y146660D02*
Y151660D01*
X117965Y146660D02*
Y151660D01*
X199214Y106905D02*
X199881Y107571D01*
X201214D01*
X201880Y106905D01*
Y104239D01*
X201214Y103573D01*
X199881D01*
X199214Y104239D01*
X197881Y103573D02*
X196549D01*
X197215D01*
Y107571D01*
X197881Y106905D01*
X194549D02*
X193883Y107571D01*
X192550D01*
X191883Y106905D01*
Y106238D01*
X192550Y105572D01*
X193216D01*
X192550D01*
X191883Y104905D01*
Y104239D01*
X192550Y103573D01*
X193883D01*
X194549Y104239D01*
X193149Y53643D02*
X193816Y52976D01*
Y51644D01*
X193149Y50977D01*
X190483D01*
X189817Y51644D01*
Y52976D01*
X190483Y53643D01*
X189817Y54976D02*
Y56309D01*
Y55642D01*
X193816D01*
X193149Y54976D01*
X193816Y58308D02*
Y60974D01*
X193149D01*
X190483Y58308D01*
X189817D01*
X125276Y62483D02*
X125942Y63150D01*
X127275D01*
X127942Y62483D01*
Y59817D01*
X127275Y59151D01*
X125942D01*
X125276Y59817D01*
X123943Y62483D02*
X123276Y63150D01*
X121943D01*
X121277Y62483D01*
Y61817D01*
X121943Y61150D01*
X121277Y60484D01*
Y59817D01*
X121943Y59151D01*
X123276D01*
X123943Y59817D01*
Y60484D01*
X123276Y61150D01*
X123943Y61817D01*
Y62483D01*
X123276Y61150D02*
X121943D01*
X158010Y160900D02*
X162009D01*
Y162899D01*
X161342Y163566D01*
X160009D01*
X159343Y162899D01*
Y160900D01*
Y162233D02*
X158010Y163566D01*
Y164899D02*
Y166232D01*
Y165565D01*
X162009D01*
X161342Y164899D01*
X158010Y170230D02*
X162009D01*
X160009Y168231D01*
Y170897D01*
X172283Y160424D02*
X176281D01*
Y162423D01*
X175615Y163090D01*
X174282D01*
X173616Y162423D01*
Y160424D01*
Y161757D02*
X172283Y163090D01*
Y164423D02*
Y165756D01*
Y165089D01*
X176281D01*
X175615Y164423D01*
Y167755D02*
X176281Y168421D01*
Y169754D01*
X175615Y170421D01*
X174948D01*
X174282Y169754D01*
Y169088D01*
Y169754D01*
X173616Y170421D01*
X172949D01*
X172283Y169754D01*
Y168421D01*
X172949Y167755D01*
X143748Y160522D02*
X147747D01*
Y162521D01*
X147080Y163188D01*
X145747D01*
X145081Y162521D01*
Y160522D01*
Y161855D02*
X143748Y163188D01*
Y164521D02*
Y165854D01*
Y165187D01*
X147747D01*
X147080Y164521D01*
X143748Y170519D02*
Y167853D01*
X146414Y170519D01*
X147080D01*
X147747Y169852D01*
Y168519D01*
X147080Y167853D01*
X189935Y164125D02*
X190602Y163459D01*
Y162126D01*
X189935Y161459D01*
X187269D01*
X186603Y162126D01*
Y163459D01*
X187269Y164125D01*
X186603Y165458D02*
Y166791D01*
Y166124D01*
X190602D01*
X189935Y165458D01*
X190602Y171456D02*
X189935Y170123D01*
X188602Y168790D01*
X187269D01*
X186603Y169457D01*
Y170790D01*
X187269Y171456D01*
X187936D01*
X188602Y170790D01*
Y168790D01*
X102674Y113203D02*
X103340Y113870D01*
X104673D01*
X105340Y113203D01*
Y110537D01*
X104673Y109871D01*
X103340D01*
X102674Y110537D01*
X101341D02*
X100674Y109871D01*
X99341D01*
X98675Y110537D01*
Y113203D01*
X99341Y113870D01*
X100674D01*
X101341Y113203D01*
Y112537D01*
X100674Y111870D01*
X98675D01*
X158081Y107383D02*
X157414Y108049D01*
Y109382D01*
X158081Y110048D01*
X160747D01*
X161413Y109382D01*
Y108049D01*
X160747Y107383D01*
X161413Y106050D02*
Y104717D01*
Y105383D01*
X157414D01*
X158081Y106050D01*
Y102717D02*
X157414Y102051D01*
Y100718D01*
X158081Y100051D01*
X160747D01*
X161413Y100718D01*
Y102051D01*
X160747Y102717D01*
X158081D01*
X152363Y66279D02*
X153030Y66945D01*
X154363D01*
X155029Y66279D01*
Y63613D01*
X154363Y62947D01*
X153030D01*
X152363Y63613D01*
X151031Y62947D02*
X149698D01*
X150364D01*
Y66945D01*
X151031Y66279D01*
X147698Y62947D02*
X146365D01*
X147032D01*
Y66945D01*
X147698Y66279D01*
X130797Y120277D02*
X131463Y120944D01*
X132796D01*
X133463Y120277D01*
Y117611D01*
X132796Y116945D01*
X131463D01*
X130797Y117611D01*
X129464Y116945D02*
X128131D01*
X128797D01*
Y120944D01*
X129464Y120277D01*
X123466Y116945D02*
X126132D01*
X123466Y119611D01*
Y120277D01*
X124132Y120944D01*
X125465D01*
X126132Y120277D01*
X88354Y100436D02*
X89020Y101102D01*
X90353D01*
X91019Y100436D01*
Y97770D01*
X90353Y97104D01*
X89020D01*
X88354Y97770D01*
X87021Y97104D02*
X85688D01*
X86354D01*
Y101102D01*
X87021Y100436D01*
X75414Y117344D02*
X76080Y118010D01*
X77413D01*
X78079Y117344D01*
Y114678D01*
X77413Y114012D01*
X76080D01*
X75414Y114678D01*
X71415Y118010D02*
X74081D01*
Y116011D01*
X72748Y116678D01*
X72081D01*
X71415Y116011D01*
Y114678D01*
X72081Y114012D01*
X73414D01*
X74081Y114678D01*
X53432Y116712D02*
X54098Y117379D01*
X55431D01*
X56098Y116712D01*
Y114047D01*
X55431Y113380D01*
X54098D01*
X53432Y114047D01*
X50100Y113380D02*
Y117379D01*
X52099Y115379D01*
X49433D01*
X108712Y100436D02*
X109379Y101102D01*
X110712D01*
X111378Y100436D01*
Y97770D01*
X110712Y97104D01*
X109379D01*
X108712Y97770D01*
X107379Y101102D02*
X104714D01*
Y100436D01*
X107379Y97770D01*
Y97104D01*
X111128Y82837D02*
X111794Y83504D01*
X113127D01*
X113794Y82837D01*
Y80172D01*
X113127Y79505D01*
X111794D01*
X111128Y80172D01*
X107129Y83504D02*
X108462Y82837D01*
X109795Y81504D01*
Y80172D01*
X109128Y79505D01*
X107796D01*
X107129Y80172D01*
Y80838D01*
X107796Y81504D01*
X109795D01*
X250016Y57474D02*
X250683Y58140D01*
X252016D01*
X252682Y57474D01*
Y54808D01*
X252016Y54142D01*
X250683D01*
X250016Y54808D01*
X248684Y54142D02*
X247351D01*
X248017D01*
Y58140D01*
X248684Y57474D01*
X245351D02*
X244685Y58140D01*
X243352D01*
X242686Y57474D01*
Y56808D01*
X243352Y56141D01*
X242686Y55475D01*
Y54808D01*
X243352Y54142D01*
X244685D01*
X245351Y54808D01*
Y55475D01*
X244685Y56141D01*
X245351Y56808D01*
Y57474D01*
X244685Y56141D02*
X243352D01*
X136610Y138072D02*
X137277Y137405D01*
Y136072D01*
X136610Y135406D01*
X133945D01*
X133278Y136072D01*
Y137405D01*
X133945Y138072D01*
X133278Y142070D02*
Y139405D01*
X135944Y142070D01*
X136610D01*
X137277Y141404D01*
Y140071D01*
X136610Y139405D01*
X89762Y138256D02*
X89095Y138923D01*
Y140255D01*
X89762Y140922D01*
X92427D01*
X93094Y140255D01*
Y138923D01*
X92427Y138256D01*
X89762Y136923D02*
X89095Y136257D01*
Y134924D01*
X89762Y134257D01*
X90428D01*
X91094Y134924D01*
Y135590D01*
Y134924D01*
X91761Y134257D01*
X92427D01*
X93094Y134924D01*
Y136257D01*
X92427Y136923D01*
X249112Y141966D02*
X251778D01*
X252445Y141300D01*
Y139967D01*
X251778Y139300D01*
X249112D01*
X248446Y139967D01*
Y141300D01*
X249779Y140633D02*
X248446Y141966D01*
Y141300D02*
X249112Y141966D01*
X248446Y143299D02*
Y144632D01*
Y143965D01*
X252445D01*
X251778Y143299D01*
X91192Y67428D02*
Y71426D01*
X89192D01*
X88526Y70760D01*
Y69427D01*
X89192Y68761D01*
X91192D01*
X89859D02*
X88526Y67428D01*
X85194D02*
Y71426D01*
X87193Y69427D01*
X84527D01*
X24421Y116605D02*
Y120603D01*
X22422D01*
X21756Y119937D01*
Y118604D01*
X22422Y117938D01*
X24421D01*
X23088D02*
X21756Y116605D01*
X20423Y119937D02*
X19756Y120603D01*
X18423D01*
X17757Y119937D01*
Y119270D01*
X18423Y118604D01*
X19090D01*
X18423D01*
X17757Y117938D01*
Y117271D01*
X18423Y116605D01*
X19756D01*
X20423Y117271D01*
X25749Y161050D02*
Y165049D01*
X23750D01*
X23084Y164382D01*
Y163049D01*
X23750Y162383D01*
X25749D01*
X24417D02*
X23084Y161050D01*
X19085D02*
X21751D01*
X19085Y163716D01*
Y164382D01*
X19751Y165049D01*
X21084D01*
X21751Y164382D01*
X129803Y161125D02*
X133802D01*
Y163124D01*
X133135Y163791D01*
X131802D01*
X131136Y163124D01*
Y161125D01*
Y162458D02*
X129803Y163791D01*
Y165123D02*
Y166456D01*
Y165790D01*
X133802D01*
X133135Y165123D01*
X129803Y168456D02*
Y169789D01*
Y169122D01*
X133802D01*
X133135Y168456D01*
X250387Y154759D02*
X254385D01*
Y156758D01*
X253719Y157425D01*
X252386D01*
X251719Y156758D01*
Y154759D01*
Y156092D02*
X250387Y157425D01*
X253719Y158758D02*
X254385Y159424D01*
Y160757D01*
X253719Y161423D01*
X253052D01*
X252386Y160757D01*
X251719Y161423D01*
X251053D01*
X250387Y160757D01*
Y159424D01*
X251053Y158758D01*
X251719D01*
X252386Y159424D01*
X253052Y158758D01*
X253719D01*
X252386Y159424D02*
Y160757D01*
X241124Y80540D02*
X245122D01*
Y82540D01*
X244456Y83206D01*
X243123D01*
X242456Y82540D01*
Y80540D01*
Y81873D02*
X241124Y83206D01*
Y84539D02*
Y85872D01*
Y85206D01*
X245122D01*
X244456Y84539D01*
X245122Y90537D02*
Y87871D01*
X243123D01*
X243789Y89204D01*
Y89871D01*
X243123Y90537D01*
X241790D01*
X241124Y89871D01*
Y88538D01*
X241790Y87871D01*
X226630Y79849D02*
X230628D01*
Y81849D01*
X229962Y82515D01*
X228629D01*
X227963Y81849D01*
Y79849D01*
Y81182D02*
X226630Y82515D01*
Y83848D02*
Y85181D01*
Y84514D01*
X230628D01*
X229962Y83848D01*
X230628Y87180D02*
Y89846D01*
X229962D01*
X227296Y87180D01*
X226630D01*
X258377Y80540D02*
X262375D01*
Y82540D01*
X261709Y83206D01*
X260376D01*
X259710Y82540D01*
Y80540D01*
Y81873D02*
X258377Y83206D01*
Y84539D02*
Y85872D01*
Y85206D01*
X262375D01*
X261709Y84539D01*
X259043Y87871D02*
X258377Y88538D01*
Y89871D01*
X259043Y90537D01*
X261709D01*
X262375Y89871D01*
Y88538D01*
X261709Y87871D01*
X261043D01*
X260376Y88538D01*
Y90537D01*
X257859Y60699D02*
X261858D01*
Y62698D01*
X261192Y63365D01*
X259859D01*
X259192Y62698D01*
Y60699D01*
Y62032D02*
X257859Y63365D01*
Y67363D02*
Y64698D01*
X260525Y67363D01*
X261192D01*
X261858Y66697D01*
Y65364D01*
X261192Y64698D01*
X257859Y71362D02*
Y68696D01*
X260525Y71362D01*
X261192D01*
X261858Y70696D01*
Y69363D01*
X261192Y68696D01*
X240590Y118856D02*
X244589D01*
Y120855D01*
X243922Y121522D01*
X242589D01*
X241923Y120855D01*
Y118856D01*
Y120189D02*
X240590Y121522D01*
Y122855D02*
Y124188D01*
Y123521D01*
X244589D01*
X243922Y122855D01*
Y126187D02*
X244589Y126853D01*
Y128186D01*
X243922Y128853D01*
X241257D01*
X240590Y128186D01*
Y126853D01*
X241257Y126187D01*
X243922D01*
X115001Y180646D02*
X112336Y176648D01*
Y180646D02*
X115001Y176648D01*
X111003D02*
X109670D01*
X110336D01*
Y180646D01*
X111003Y179980D01*
X233531Y53107D02*
Y57105D01*
X231532D01*
X230865Y56439D01*
Y55106D01*
X231532Y54440D01*
X233531D01*
X232198D02*
X230865Y53107D01*
X226867D02*
X229532D01*
X226867Y55772D01*
Y56439D01*
X227533Y57105D01*
X228866D01*
X229532Y56439D01*
X225534D02*
X224867Y57105D01*
X223534D01*
X222868Y56439D01*
Y55772D01*
X223534Y55106D01*
X224201D01*
X223534D01*
X222868Y54440D01*
Y53773D01*
X223534Y53107D01*
X224867D01*
X225534Y53773D01*
D14*
X170455Y109108D02*
X203132D01*
X170455Y136608D02*
X175632Y141785D01*
X170455Y109108D02*
Y136608D01*
X175632Y141785D02*
X197955D01*
X203132Y136608D01*
Y109108D02*
Y136608D01*
D83*
X112565Y159809D02*
D03*
M02*
