G04*
G04 #@! TF.GenerationSoftware,Altium Limited,Altium Designer,18.1.6 (161)*
G04*
G04 Layer_Physical_Order=1*
G04 Layer_Color=255*
%FSLAX25Y25*%
%MOIN*%
G70*
G01*
G75*
%ADD14C,0.01000*%
%ADD18R,0.05512X0.04724*%
%ADD19R,0.05000X0.03937*%
%ADD20R,0.03937X0.05000*%
%ADD21R,0.04724X0.05512*%
%ADD22R,0.09843X0.05610*%
%ADD23R,0.06890X0.01575*%
%ADD24R,0.06299X0.03150*%
%ADD25R,0.04724X0.05906*%
%ADD26R,0.04724X0.03150*%
%ADD27R,0.04724X0.07874*%
%ADD28R,0.06693X0.04331*%
%ADD29R,0.05512X0.04331*%
%ADD30R,0.12992X0.09449*%
%ADD31R,0.03937X0.09449*%
G04:AMPARAMS|DCode=32|XSize=11.02mil|YSize=61.42mil|CornerRadius=2.76mil|HoleSize=0mil|Usage=FLASHONLY|Rotation=90.000|XOffset=0mil|YOffset=0mil|HoleType=Round|Shape=RoundedRectangle|*
%AMROUNDEDRECTD32*
21,1,0.01102,0.05591,0,0,90.0*
21,1,0.00551,0.06142,0,0,90.0*
1,1,0.00551,0.02795,0.00276*
1,1,0.00551,0.02795,-0.00276*
1,1,0.00551,-0.02795,-0.00276*
1,1,0.00551,-0.02795,0.00276*
%
%ADD32ROUNDEDRECTD32*%
G04:AMPARAMS|DCode=33|XSize=11.02mil|YSize=61.42mil|CornerRadius=2.76mil|HoleSize=0mil|Usage=FLASHONLY|Rotation=0.000|XOffset=0mil|YOffset=0mil|HoleType=Round|Shape=RoundedRectangle|*
%AMROUNDEDRECTD33*
21,1,0.01102,0.05591,0,0,0.0*
21,1,0.00551,0.06142,0,0,0.0*
1,1,0.00551,0.00276,-0.02795*
1,1,0.00551,-0.00276,-0.02795*
1,1,0.00551,-0.00276,0.02795*
1,1,0.00551,0.00276,0.02795*
%
%ADD33ROUNDEDRECTD33*%
%ADD34R,0.03150X0.04724*%
%ADD60C,0.02000*%
%ADD61C,0.00800*%
%ADD62C,0.01500*%
%ADD63C,0.01181*%
%ADD64O,0.09449X0.04724*%
%ADD65O,0.05748X0.02874*%
%ADD66C,0.05906*%
%ADD67R,0.05906X0.05906*%
%ADD68R,0.05906X0.05906*%
%ADD69C,0.07500*%
%ADD70C,0.07087*%
%ADD71R,0.07500X0.07500*%
%ADD72C,0.02000*%
%ADD73C,0.01500*%
%ADD74C,0.15748*%
G36*
X274824Y109288D02*
X274417Y109063D01*
X274324Y109063D01*
X272661D01*
Y141225D01*
X272583Y141615D01*
X272362Y141946D01*
X264770Y149538D01*
X264439Y149759D01*
X264049Y149836D01*
X223219D01*
X222829Y149759D01*
X222498Y149538D01*
X219598Y146638D01*
X219377Y146307D01*
X219299Y145917D01*
Y138232D01*
X219377Y137842D01*
X219598Y137511D01*
X221207Y135903D01*
X220908Y135181D01*
X220789Y134280D01*
X220908Y133378D01*
X221207Y132657D01*
X219097Y130547D01*
X218876Y130216D01*
X218799Y129826D01*
Y117394D01*
X218675Y117311D01*
X218344Y116815D01*
X218227Y116230D01*
X218344Y115644D01*
X218623Y115227D01*
X218534Y114927D01*
X218406Y114727D01*
X213064D01*
X213023Y114788D01*
X212526Y115120D01*
X211941Y115236D01*
X211356Y115120D01*
X210860Y114788D01*
X210528Y114292D01*
X210412Y113707D01*
X210528Y113122D01*
X210860Y112626D01*
X211356Y112294D01*
X211941Y112178D01*
X212526Y112294D01*
X213023Y112626D01*
X213064Y112687D01*
X255753D01*
X260819Y107621D01*
Y100189D01*
X266543D01*
Y109063D01*
X262261D01*
X260374Y110949D01*
X260566Y111411D01*
X265865D01*
Y118317D01*
X258959D01*
Y113018D01*
X258497Y112827D01*
X256896Y114428D01*
X243585Y127739D01*
X243254Y127960D01*
X242864Y128037D01*
X241956D01*
X227337Y142657D01*
X227636Y143378D01*
X227754Y144280D01*
X227636Y145181D01*
X227288Y146021D01*
X226734Y146742D01*
X226013Y147295D01*
X226009Y147297D01*
X226108Y147797D01*
X263627D01*
X270622Y140802D01*
Y109063D01*
X268693D01*
Y100189D01*
X274324D01*
X274417Y100189D01*
X274824Y99964D01*
Y50233D01*
X274417Y50008D01*
X274324Y50008D01*
X272667D01*
Y51145D01*
X272667Y51145D01*
X272582Y51570D01*
X272341Y51931D01*
X272341Y51931D01*
X268339Y55934D01*
X268316Y56050D01*
X268039Y56463D01*
X267626Y56739D01*
X267138Y56836D01*
X266651Y56739D01*
X266237Y56463D01*
X265961Y56050D01*
X265864Y55562D01*
X265961Y55074D01*
X266237Y54661D01*
X266651Y54384D01*
X266766Y54361D01*
X270443Y50684D01*
Y50008D01*
X268693D01*
Y41134D01*
X270443D01*
Y38864D01*
X266891Y35312D01*
X262346D01*
Y29587D01*
X268336D01*
Y27831D01*
X262346D01*
Y26081D01*
X248269D01*
Y27831D01*
X241757D01*
Y26021D01*
X238128D01*
X237677Y26322D01*
X237092Y26439D01*
X236507Y26322D01*
X236011Y25991D01*
X235679Y25495D01*
X235563Y24909D01*
X235679Y24324D01*
X236011Y23828D01*
X236507Y23496D01*
X237092Y23380D01*
X237677Y23496D01*
X238128Y23797D01*
X241757D01*
Y22107D01*
X248269D01*
Y23857D01*
X262346D01*
Y22107D01*
X261936Y21888D01*
X257346D01*
X257346Y21888D01*
X256921Y21803D01*
X256560Y21562D01*
X256560Y21562D01*
X246473Y11475D01*
X246011Y11666D01*
Y16494D01*
X244261D01*
Y17289D01*
X244176Y17715D01*
X243935Y18075D01*
X243935Y18075D01*
X241489Y20522D01*
X241128Y20763D01*
X240702Y20847D01*
X240702Y20847D01*
X236635D01*
X234568Y22914D01*
Y29638D01*
X236267Y31337D01*
X241757D01*
Y29587D01*
X248269D01*
Y34133D01*
X248719Y34583D01*
X248719Y34583D01*
X248960Y34944D01*
X249045Y35370D01*
X249045Y35370D01*
Y41134D01*
X250795D01*
Y50008D01*
X245071D01*
Y41134D01*
X246821D01*
Y35830D01*
X246303Y35312D01*
X241757D01*
Y33561D01*
X235807D01*
X235807Y33561D01*
X235381Y33477D01*
X235020Y33236D01*
X235020Y33236D01*
X232670Y30885D01*
X232429Y30525D01*
X232344Y30099D01*
X232344Y30099D01*
Y22454D01*
X232344Y22454D01*
X232429Y22028D01*
X232670Y21667D01*
X235388Y18949D01*
X235749Y18708D01*
X236174Y18624D01*
X240242D01*
X241871Y16994D01*
X241664Y16494D01*
X240287D01*
Y9983D01*
X244327D01*
X244519Y9521D01*
X242697Y7699D01*
X207917D01*
X207819Y7988D01*
X207782Y8198D01*
X208311Y8889D01*
X208659Y9729D01*
X208778Y10630D01*
X208659Y11531D01*
X208311Y12371D01*
X207758Y13092D01*
X207036Y13646D01*
X206315Y13945D01*
Y18419D01*
X211955Y24059D01*
X214518D01*
X214606Y23559D01*
X214209Y23293D01*
X213877Y22797D01*
X213761Y22212D01*
Y16506D01*
X212642D01*
Y9994D01*
X218366D01*
Y16506D01*
X216820D01*
Y22212D01*
X216703Y22797D01*
X216371Y23293D01*
X215974Y23559D01*
X216062Y24059D01*
X216961D01*
X217352Y24136D01*
X217682Y24357D01*
X221284Y27959D01*
X225960D01*
Y32635D01*
X229544Y36219D01*
X229765Y36549D01*
X229842Y36940D01*
Y41134D01*
X235047D01*
Y50008D01*
X229842D01*
Y58058D01*
X242850Y71066D01*
X243071Y71397D01*
X243149Y71787D01*
Y95468D01*
X243071Y95858D01*
X242850Y96189D01*
X241079Y97961D01*
Y99949D01*
X241579Y100090D01*
X246155Y95514D01*
X246485Y95293D01*
X246876Y95215D01*
X248690D01*
X248926Y95057D01*
X249414Y94960D01*
X249901Y95057D01*
X250315Y95333D01*
X250591Y95747D01*
X250688Y96235D01*
X250591Y96722D01*
X250315Y97136D01*
X249901Y97412D01*
X249414Y97509D01*
X248926Y97412D01*
X248690Y97254D01*
X247298D01*
X242921Y101631D01*
Y108543D01*
X244148D01*
X245071Y107621D01*
Y100189D01*
X250795D01*
Y109063D01*
X246513D01*
X245292Y110284D01*
X244961Y110505D01*
X244571Y110583D01*
X213661D01*
X213270Y110505D01*
X212940Y110284D01*
X177019Y74363D01*
X176798Y74032D01*
X176720Y73642D01*
Y62580D01*
X176562Y62344D01*
X176465Y61856D01*
X176562Y61369D01*
X176839Y60955D01*
X177252Y60679D01*
X177740Y60582D01*
X178228Y60679D01*
X178641Y60955D01*
X178917Y61369D01*
X179014Y61856D01*
X178917Y62344D01*
X178760Y62580D01*
Y73220D01*
X214083Y108543D01*
X221449D01*
Y100189D01*
X223199D01*
Y95003D01*
X223170Y94857D01*
X223267Y94369D01*
X223543Y93956D01*
X223957Y93679D01*
X224445Y93582D01*
X224932Y93679D01*
X225346Y93956D01*
X225622Y94369D01*
X225719Y94857D01*
X225622Y95345D01*
X225423Y95643D01*
Y100189D01*
X227173D01*
Y108543D01*
X229323D01*
Y100189D01*
X233605D01*
X234869Y98925D01*
Y96677D01*
X234711Y96441D01*
X234614Y95953D01*
X234711Y95465D01*
X234987Y95052D01*
X235401Y94775D01*
X235889Y94678D01*
X236376Y94775D01*
X236790Y95052D01*
X237066Y95465D01*
X237163Y95953D01*
X237066Y96441D01*
X236908Y96677D01*
Y99348D01*
X236831Y99738D01*
X236610Y100069D01*
X235047Y101631D01*
Y108543D01*
X237197D01*
Y100189D01*
X239039D01*
Y97538D01*
X239117Y97148D01*
X239338Y96817D01*
X241110Y95046D01*
Y72209D01*
X228102Y59201D01*
X227881Y58871D01*
X227803Y58480D01*
Y37362D01*
X224912Y34471D01*
X220236D01*
Y29794D01*
X218942Y28501D01*
X218480Y28692D01*
Y34471D01*
X214197D01*
X212438Y36230D01*
X212108Y36451D01*
X211717Y36528D01*
X200160D01*
Y38658D01*
X192861D01*
Y34509D01*
X197487D01*
X197585Y34489D01*
X211295D01*
X212755Y33029D01*
Y27959D01*
X217747D01*
X217938Y27497D01*
X216539Y26098D01*
X211532D01*
X211142Y26020D01*
X210811Y25799D01*
X204574Y19562D01*
X204353Y19231D01*
X204276Y18841D01*
Y13945D01*
X203554Y13646D01*
X202833Y13092D01*
X202279Y12371D01*
X201931Y11531D01*
X201813Y10630D01*
X201931Y9729D01*
X202279Y8889D01*
X202809Y8198D01*
X202772Y7988D01*
X202674Y7699D01*
X197917D01*
X197819Y7988D01*
X197782Y8198D01*
X198311Y8889D01*
X198659Y9729D01*
X198778Y10630D01*
X198659Y11531D01*
X198311Y12371D01*
X197758Y13092D01*
X197037Y13646D01*
X196197Y13994D01*
X195295Y14112D01*
X194394Y13994D01*
X193554Y13646D01*
X192833Y13092D01*
X192279Y12371D01*
X191931Y11531D01*
X191813Y10630D01*
X191931Y9729D01*
X192279Y8889D01*
X192809Y8198D01*
X192772Y7988D01*
X192674Y7699D01*
X187917D01*
X187819Y7988D01*
X187782Y8198D01*
X188311Y8889D01*
X188659Y9729D01*
X188778Y10630D01*
X188659Y11531D01*
X188311Y12371D01*
X187758Y13092D01*
X187037Y13646D01*
X186197Y13994D01*
X185295Y14112D01*
X184394Y13994D01*
X183554Y13646D01*
X182833Y13092D01*
X182279Y12371D01*
X181931Y11531D01*
X181813Y10630D01*
X181931Y9729D01*
X182279Y8889D01*
X182809Y8198D01*
X182772Y7988D01*
X182674Y7699D01*
X179799D01*
X178399Y9099D01*
X178659Y9729D01*
X178778Y10630D01*
X178659Y11531D01*
X178311Y12371D01*
X177758Y13092D01*
X177037Y13646D01*
X176197Y13994D01*
X175295Y14112D01*
X174394Y13994D01*
X173554Y13646D01*
X172833Y13092D01*
X172279Y12371D01*
X171931Y11531D01*
X171813Y10630D01*
X171931Y9729D01*
X172279Y8889D01*
X172833Y8167D01*
X173554Y7614D01*
X174394Y7266D01*
X175295Y7147D01*
X176197Y7266D01*
X176826Y7527D01*
X178552Y5800D01*
X178552Y5800D01*
X178913Y5559D01*
X179339Y5475D01*
X243157D01*
X243157Y5475D01*
X243583Y5559D01*
X243944Y5800D01*
X257807Y19664D01*
X259646D01*
X259771Y19164D01*
X259105Y18808D01*
X257830Y17761D01*
X256783Y16486D01*
X256006Y15031D01*
X255527Y13453D01*
X255365Y11811D01*
X255527Y10169D01*
X256006Y8591D01*
X256783Y7136D01*
X257830Y5861D01*
X259105Y4815D01*
X260559Y4037D01*
X262138Y3558D01*
X263779Y3396D01*
X265421Y3558D01*
X267000Y4037D01*
X268454Y4815D01*
X269729Y5861D01*
X270776Y7136D01*
X271553Y8591D01*
X272032Y10169D01*
X272194Y11811D01*
X272032Y13453D01*
X271553Y15031D01*
X270776Y16486D01*
X269729Y17761D01*
X268454Y18808D01*
X267869Y19121D01*
X267994Y19621D01*
X268025D01*
X268025Y19621D01*
X268451Y19705D01*
X268811Y19946D01*
X270234Y21369D01*
X270475Y21730D01*
X270560Y22155D01*
Y31304D01*
X270475Y31730D01*
X270234Y32091D01*
X270234Y32091D01*
X269089Y33236D01*
X268857Y33391D01*
Y34133D01*
X272341Y37617D01*
X272341Y37617D01*
X272582Y37978D01*
X272667Y38403D01*
Y41134D01*
X274324D01*
X274417Y41134D01*
X274824Y40909D01*
Y765D01*
X766D01*
Y196085D01*
X39665D01*
X39817Y195585D01*
X39733Y195529D01*
X1768Y157564D01*
X1436Y157067D01*
X1320Y156482D01*
Y74826D01*
X1436Y74241D01*
X1768Y73745D01*
X6724Y68789D01*
Y64046D01*
X13630D01*
Y65969D01*
X15701D01*
X25370Y56300D01*
Y50429D01*
X22910Y47969D01*
X16040D01*
Y45394D01*
Y42835D01*
Y40276D01*
Y37717D01*
X23930D01*
Y39247D01*
X24392Y39438D01*
X25675Y38155D01*
X25973Y37956D01*
X26324Y37886D01*
X28513D01*
Y35314D01*
X33450D01*
Y41314D01*
X28513D01*
Y39721D01*
X26704D01*
X24305Y42120D01*
X24007Y42319D01*
X23930Y42335D01*
Y43341D01*
X23981Y43352D01*
X24279Y43551D01*
X26936Y46207D01*
X28760D01*
Y44304D01*
X33697D01*
Y50304D01*
X28760D01*
X28429Y50667D01*
Y56934D01*
X28312Y57519D01*
X27981Y58015D01*
X17416Y68580D01*
X16919Y68912D01*
X16334Y69028D01*
X13630D01*
Y70952D01*
X8887D01*
X4378Y75460D01*
Y155849D01*
X33975Y185445D01*
X34449Y185212D01*
X34408Y184903D01*
X34554Y183794D01*
X34982Y182760D01*
X35664Y181872D01*
X36551Y181191D01*
X37585Y180763D01*
X38695Y180616D01*
X39804Y180763D01*
X40838Y181191D01*
X41726Y181872D01*
X42407Y182760D01*
X42835Y183794D01*
X42981Y184903D01*
X42835Y186013D01*
X42725Y186279D01*
X47797Y191351D01*
X52993D01*
X53201Y190851D01*
X50910Y188560D01*
X50838Y188616D01*
X49804Y189044D01*
X48695Y189190D01*
X47585Y189044D01*
X46551Y188616D01*
X45664Y187934D01*
X44982Y187046D01*
X44554Y186013D01*
X44408Y184903D01*
X44554Y183794D01*
X44982Y182760D01*
X45664Y181872D01*
X46551Y181191D01*
X47585Y180763D01*
X48695Y180616D01*
X49804Y180763D01*
X50838Y181191D01*
X51726Y181872D01*
X52407Y182760D01*
X52835Y183794D01*
X52981Y184903D01*
X52835Y186013D01*
X52407Y187046D01*
X52352Y187118D01*
X54671Y189437D01*
X57229D01*
X57328Y188937D01*
X56551Y188616D01*
X55664Y187934D01*
X54982Y187046D01*
X54554Y186013D01*
X54408Y184903D01*
X54554Y183794D01*
X54982Y182760D01*
X55664Y181872D01*
X56551Y181191D01*
X57585Y180763D01*
X58695Y180616D01*
X59804Y180763D01*
X60838Y181191D01*
X61726Y181872D01*
X62407Y182760D01*
X62835Y183794D01*
X62981Y184903D01*
X62835Y186013D01*
X62407Y187046D01*
X61726Y187934D01*
X60838Y188616D01*
X60061Y188937D01*
X60160Y189437D01*
X61598D01*
X61834Y189279D01*
X62322Y189182D01*
X62809Y189279D01*
X63223Y189556D01*
X63499Y189969D01*
X63596Y190457D01*
X63549Y190694D01*
X63962Y191020D01*
X64450Y190923D01*
X64937Y191020D01*
X65351Y191296D01*
X65531Y191567D01*
X66098Y191708D01*
X66505Y191300D01*
X67001Y190969D01*
X67586Y190852D01*
X244036D01*
X245079Y189809D01*
X244982Y189613D01*
X244815Y189366D01*
X243963Y189254D01*
X243123Y188906D01*
X242401Y188353D01*
X241848Y187632D01*
X241500Y186792D01*
X241381Y185890D01*
X241500Y184989D01*
X241848Y184149D01*
X242401Y183428D01*
X243123Y182874D01*
X243963Y182526D01*
X244864Y182408D01*
X245765Y182526D01*
X246605Y182874D01*
X247326Y183428D01*
X247880Y184149D01*
X248228Y184989D01*
X248340Y185841D01*
X248586Y186009D01*
X248783Y186106D01*
X250479Y184410D01*
Y175268D01*
X250595Y174683D01*
X250926Y174187D01*
X259136Y165977D01*
X259048Y165765D01*
X258929Y164864D01*
X259048Y163963D01*
X259396Y163123D01*
X259949Y162401D01*
X260671Y161848D01*
X261511Y161500D01*
X262412Y161381D01*
X263313Y161500D01*
X264153Y161848D01*
X264875Y162401D01*
X265428Y163123D01*
X265776Y163963D01*
X265895Y164864D01*
X265776Y165765D01*
X265428Y166605D01*
X264875Y167326D01*
X264153Y167880D01*
X263313Y168228D01*
X262412Y168347D01*
X261511Y168228D01*
X261299Y168140D01*
X253537Y175901D01*
Y185044D01*
X253421Y185629D01*
X253089Y186125D01*
X245751Y193463D01*
X245255Y193795D01*
X244670Y193911D01*
X68220D01*
X66602Y195529D01*
X66518Y195585D01*
X66669Y196085D01*
X274824D01*
Y109288D01*
D02*
G37*
%LPC*%
G36*
X208317Y189343D02*
X201411D01*
Y182438D01*
X208317D01*
Y189343D01*
D02*
G37*
G36*
X234864Y189373D02*
X233963Y189254D01*
X233123Y188906D01*
X232401Y188353D01*
X231848Y187632D01*
X231500Y186792D01*
X231381Y185890D01*
X231500Y184989D01*
X231848Y184149D01*
X232401Y183428D01*
X233123Y182874D01*
X233963Y182526D01*
X234864Y182408D01*
X235765Y182526D01*
X236605Y182874D01*
X237326Y183428D01*
X237880Y184149D01*
X238228Y184989D01*
X238346Y185890D01*
X238228Y186792D01*
X237880Y187632D01*
X237326Y188353D01*
X236605Y188906D01*
X235765Y189254D01*
X234864Y189373D01*
D02*
G37*
G36*
X224864D02*
X223963Y189254D01*
X223123Y188906D01*
X222401Y188353D01*
X221848Y187632D01*
X221500Y186792D01*
X221381Y185890D01*
X221500Y184989D01*
X221848Y184149D01*
X222401Y183428D01*
X223123Y182874D01*
X223963Y182526D01*
X224864Y182408D01*
X225765Y182526D01*
X226605Y182874D01*
X227326Y183428D01*
X227880Y184149D01*
X228228Y184989D01*
X228346Y185890D01*
X228228Y186792D01*
X227880Y187632D01*
X227326Y188353D01*
X226605Y188906D01*
X225765Y189254D01*
X224864Y189373D01*
D02*
G37*
G36*
X214864D02*
X213963Y189254D01*
X213123Y188906D01*
X212401Y188353D01*
X211848Y187632D01*
X211500Y186792D01*
X211381Y185890D01*
X211500Y184989D01*
X211848Y184149D01*
X212401Y183428D01*
X213123Y182874D01*
X213963Y182526D01*
X214864Y182408D01*
X215765Y182526D01*
X216605Y182874D01*
X217326Y183428D01*
X217880Y184149D01*
X218228Y184989D01*
X218346Y185890D01*
X218228Y186792D01*
X217880Y187632D01*
X217326Y188353D01*
X216605Y188906D01*
X215765Y189254D01*
X214864Y189373D01*
D02*
G37*
G36*
X180472Y188284D02*
X173567D01*
Y181378D01*
X180472D01*
Y188284D01*
D02*
G37*
G36*
X157020Y188313D02*
X156118Y188195D01*
X155278Y187847D01*
X154557Y187293D01*
X154004Y186572D01*
X153656Y185732D01*
X153537Y184831D01*
X153656Y183929D01*
X154004Y183089D01*
X154557Y182368D01*
X155278Y181815D01*
X156118Y181467D01*
X157020Y181348D01*
X157921Y181467D01*
X158761Y181815D01*
X159482Y182368D01*
X160036Y183089D01*
X160384Y183929D01*
X160502Y184831D01*
X160384Y185732D01*
X160036Y186572D01*
X159482Y187293D01*
X158761Y187847D01*
X157921Y188195D01*
X157020Y188313D01*
D02*
G37*
G36*
X147020D02*
X146118Y188195D01*
X145278Y187847D01*
X144557Y187293D01*
X144004Y186572D01*
X143656Y185732D01*
X143537Y184831D01*
X143656Y183929D01*
X144004Y183089D01*
X144557Y182368D01*
X145278Y181815D01*
X146118Y181467D01*
X147020Y181348D01*
X147921Y181467D01*
X148761Y181815D01*
X149482Y182368D01*
X150036Y183089D01*
X150384Y183929D01*
X150502Y184831D01*
X150384Y185732D01*
X150036Y186572D01*
X149482Y187293D01*
X148761Y187847D01*
X147921Y188195D01*
X147020Y188313D01*
D02*
G37*
G36*
X137020D02*
X136118Y188195D01*
X135278Y187847D01*
X134557Y187293D01*
X134004Y186572D01*
X133656Y185732D01*
X133537Y184831D01*
X133656Y183929D01*
X134004Y183089D01*
X134557Y182368D01*
X135278Y181815D01*
X136118Y181467D01*
X137020Y181348D01*
X137921Y181467D01*
X138761Y181815D01*
X139482Y182368D01*
X140036Y183089D01*
X140384Y183929D01*
X140502Y184831D01*
X140384Y185732D01*
X140036Y186572D01*
X139482Y187293D01*
X138761Y187847D01*
X137921Y188195D01*
X137020Y188313D01*
D02*
G37*
G36*
X127020D02*
X126118Y188195D01*
X125278Y187847D01*
X124557Y187293D01*
X124004Y186572D01*
X123656Y185732D01*
X123537Y184831D01*
X123656Y183929D01*
X124004Y183089D01*
X124557Y182368D01*
X125278Y181815D01*
X126118Y181467D01*
X127020Y181348D01*
X127921Y181467D01*
X128761Y181815D01*
X129482Y182368D01*
X130036Y183089D01*
X130384Y183929D01*
X130502Y184831D01*
X130384Y185732D01*
X130036Y186572D01*
X129482Y187293D01*
X128761Y187847D01*
X127921Y188195D01*
X127020Y188313D01*
D02*
G37*
G36*
X117020D02*
X116118Y188195D01*
X115278Y187847D01*
X114557Y187293D01*
X114004Y186572D01*
X113656Y185732D01*
X113537Y184831D01*
X113656Y183929D01*
X114004Y183089D01*
X114557Y182368D01*
X115278Y181815D01*
X116118Y181467D01*
X117020Y181348D01*
X117921Y181467D01*
X118761Y181815D01*
X119482Y182368D01*
X120036Y183089D01*
X120384Y183929D01*
X120502Y184831D01*
X120384Y185732D01*
X120036Y186572D01*
X119482Y187293D01*
X118761Y187847D01*
X117921Y188195D01*
X117020Y188313D01*
D02*
G37*
G36*
X262412Y158346D02*
X261511Y158228D01*
X260671Y157880D01*
X259949Y157326D01*
X259396Y156605D01*
X259097Y155884D01*
X194224D01*
X193834Y155806D01*
X193503Y155585D01*
X148967Y111049D01*
X148507Y111295D01*
X148527Y111398D01*
Y116988D01*
X148467Y117291D01*
X148295Y117547D01*
X148039Y117719D01*
X147736Y117779D01*
X147185D01*
X146882Y117719D01*
X146835Y117687D01*
X146476Y117588D01*
X146118Y117687D01*
X146070Y117719D01*
X145768Y117779D01*
X145217D01*
X145028Y117742D01*
X144663Y117943D01*
X144528Y118062D01*
Y139566D01*
X144686Y139803D01*
X144783Y140290D01*
X144686Y140778D01*
X144410Y141191D01*
X143996Y141468D01*
X143509Y141565D01*
X143307Y141525D01*
X142972Y141548D01*
X142764Y141888D01*
X142733Y142046D01*
X142456Y142459D01*
X142043Y142736D01*
X141555Y142833D01*
X141067Y142736D01*
X140916Y142634D01*
X140275Y142697D01*
X140230Y142725D01*
X139859Y142974D01*
X139830Y142979D01*
X139666Y143522D01*
X146358Y150214D01*
X162822D01*
X162822Y150214D01*
X163236Y149938D01*
X163724Y149841D01*
X164211Y149938D01*
X164625Y150214D01*
X164901Y150627D01*
X164998Y151115D01*
X164901Y151603D01*
X164625Y152016D01*
X164211Y152293D01*
X163724Y152390D01*
X163236Y152293D01*
X163177Y152253D01*
X145936D01*
X145545Y152176D01*
X145215Y151955D01*
X136897Y143637D01*
X136676Y143307D01*
X136599Y142916D01*
Y139893D01*
X136099Y139603D01*
X135756Y139671D01*
X135269Y139574D01*
X134855Y139298D01*
X134579Y138884D01*
X134482Y138397D01*
X134579Y137909D01*
X134681Y137756D01*
Y132074D01*
X134181Y131867D01*
X128210Y137838D01*
X127880Y138058D01*
X127489Y138136D01*
X120792D01*
X120632Y138610D01*
X120849Y138776D01*
X121497Y139621D01*
X121904Y140604D01*
X122043Y141660D01*
X121904Y142715D01*
X121497Y143699D01*
X120849Y144544D01*
X120004Y145192D01*
X119020Y145599D01*
X117965Y145738D01*
X116909Y145599D01*
X115926Y145192D01*
X115081Y144544D01*
X114433Y143699D01*
X114026Y142715D01*
X113887Y141660D01*
X114026Y140604D01*
X114433Y139621D01*
X115081Y138776D01*
X115298Y138610D01*
X115138Y138136D01*
X110792D01*
X110632Y138610D01*
X110849Y138776D01*
X111497Y139621D01*
X111904Y140604D01*
X112043Y141660D01*
X111904Y142715D01*
X111497Y143699D01*
X110849Y144544D01*
X110004Y145192D01*
X109020Y145599D01*
X107965Y145738D01*
X106909Y145599D01*
X105926Y145192D01*
X105081Y144544D01*
X104433Y143699D01*
X104026Y142715D01*
X103887Y141660D01*
X104026Y140604D01*
X104433Y139621D01*
X105081Y138776D01*
X105298Y138610D01*
X105138Y138136D01*
X86076D01*
X68611Y155601D01*
X68280Y155822D01*
X67890Y155900D01*
X36132D01*
X35895Y156058D01*
X35408Y156155D01*
X34920Y156058D01*
X34506Y155781D01*
X34230Y155368D01*
X34133Y154880D01*
X34230Y154393D01*
X34506Y153979D01*
X34920Y153703D01*
X35408Y153606D01*
X35895Y153703D01*
X36132Y153861D01*
X67467D01*
X81344Y139984D01*
X81111Y139510D01*
X80786Y139553D01*
X79677Y139407D01*
X78643Y138979D01*
X77755Y138297D01*
X77074Y137409D01*
X76645Y136376D01*
X76499Y135266D01*
X76645Y134157D01*
X77074Y133123D01*
X77755Y132235D01*
X78643Y131554D01*
X79677Y131126D01*
X80786Y130980D01*
X81896Y131126D01*
X82929Y131554D01*
X83817Y132235D01*
X84499Y133123D01*
X84927Y134157D01*
X85073Y135266D01*
X85009Y135754D01*
X85055Y135831D01*
X85463Y136135D01*
X85653Y136097D01*
X127067D01*
X132661Y130502D01*
Y118072D01*
X132544Y117960D01*
X132161Y117745D01*
X131988Y117779D01*
X131437D01*
X131134Y117719D01*
X131087Y117687D01*
X130728Y117588D01*
X130370Y117687D01*
X130322Y117719D01*
X130020Y117779D01*
X129469D01*
X129166Y117719D01*
X128909Y117547D01*
X128738Y117291D01*
X128678Y116988D01*
Y111398D01*
X128468Y111142D01*
X127084D01*
X126874Y111398D01*
Y116988D01*
X126830Y117208D01*
Y118592D01*
X126895Y118636D01*
X127226Y119132D01*
X127343Y119717D01*
X127226Y120302D01*
X126895Y120798D01*
X126399Y121130D01*
X125813Y121246D01*
X125228Y121130D01*
X124732Y120798D01*
X124400Y120302D01*
X124284Y119717D01*
X124400Y119132D01*
X124732Y118636D01*
X124791Y118596D01*
Y117239D01*
X124741Y116988D01*
Y114215D01*
X124736Y114193D01*
X124741Y114171D01*
Y111398D01*
X124531Y111142D01*
X116393D01*
X115371Y112164D01*
X115040Y112385D01*
X114650Y112462D01*
X34121D01*
X33730Y112385D01*
X33400Y112164D01*
X11800Y90564D01*
X11078Y90863D01*
X10177Y90981D01*
X9275Y90863D01*
X8435Y90515D01*
X7714Y89961D01*
X7161Y89240D01*
X6813Y88400D01*
X6694Y87499D01*
X6813Y86598D01*
X7161Y85758D01*
X7714Y85036D01*
X8435Y84483D01*
X9275Y84135D01*
X10177Y84016D01*
X11078Y84135D01*
X11918Y84483D01*
X12639Y85036D01*
X13193Y85758D01*
X13541Y86598D01*
X13659Y87499D01*
X13541Y88400D01*
X13242Y89122D01*
X34543Y110423D01*
X113795D01*
X113932Y110240D01*
X113815Y109596D01*
X113727Y109537D01*
X113396Y109041D01*
X113279Y108456D01*
X113396Y107871D01*
X113727Y107375D01*
X114223Y107043D01*
X114808Y106927D01*
X115394Y107043D01*
X115890Y107375D01*
X115923Y107378D01*
X116294Y107342D01*
X116598Y106907D01*
X116591Y106870D01*
Y106319D01*
X116622Y106161D01*
X116392Y105764D01*
X116287Y105661D01*
X106544D01*
X106284Y105835D01*
X105796Y105932D01*
X105309Y105835D01*
X104895Y105559D01*
X104619Y105145D01*
X104522Y104657D01*
X104619Y104170D01*
X104347Y103677D01*
X101997D01*
X101544Y104129D01*
X101522Y104239D01*
X101246Y104653D01*
X100833Y104929D01*
X100345Y105026D01*
X99857Y104929D01*
X99444Y104653D01*
X99167Y104239D01*
X99070Y103751D01*
X99167Y103264D01*
X99444Y102850D01*
X99857Y102574D01*
X100067Y102532D01*
X100208Y102301D01*
X99928Y101801D01*
X93769D01*
X92321Y103249D01*
X92298Y103364D01*
X92022Y103778D01*
X91608Y104054D01*
X91120Y104151D01*
X90633Y104054D01*
X90219Y103778D01*
X89943Y103364D01*
X89846Y102877D01*
X89943Y102389D01*
X90219Y101975D01*
X90633Y101699D01*
X90748Y101676D01*
X92092Y100332D01*
X91885Y99832D01*
X88976D01*
X86511Y102298D01*
X86488Y102413D01*
X86212Y102827D01*
X85798Y103103D01*
X85310Y103200D01*
X84823Y103103D01*
X84409Y102827D01*
X84133Y102413D01*
X84036Y101926D01*
X84133Y101438D01*
X84409Y101025D01*
X84823Y100748D01*
X84938Y100725D01*
X87730Y97934D01*
X88090Y97693D01*
X88516Y97609D01*
X95868D01*
X96151Y97109D01*
X96080Y96752D01*
X96177Y96264D01*
X96453Y95851D01*
X96867Y95574D01*
X97354Y95477D01*
X97842Y95574D01*
X97940Y95640D01*
X120177D01*
X120406Y95686D01*
X122972D01*
X123275Y95746D01*
X123532Y95917D01*
X123703Y96174D01*
X123763Y96476D01*
Y97028D01*
X123703Y97330D01*
X123671Y97378D01*
X123573Y97736D01*
X123671Y98095D01*
X123703Y98142D01*
X123763Y98445D01*
Y98996D01*
X123703Y99299D01*
X123671Y99346D01*
X123573Y99705D01*
X123671Y100063D01*
X123703Y100111D01*
X123763Y100413D01*
Y100965D01*
X123703Y101267D01*
X123671Y101315D01*
X123573Y101673D01*
X123671Y102032D01*
X123703Y102079D01*
X123763Y102382D01*
Y102933D01*
X123703Y103236D01*
X123671Y103283D01*
X123573Y103642D01*
X123671Y104000D01*
X123703Y104048D01*
X123763Y104350D01*
Y104902D01*
X123703Y105204D01*
X123671Y105252D01*
X123573Y105610D01*
X123671Y105969D01*
X123703Y106016D01*
X123763Y106319D01*
Y106870D01*
X123703Y107173D01*
X123671Y107220D01*
X123573Y107579D01*
X123671Y107937D01*
X123703Y107985D01*
X123763Y108287D01*
Y108839D01*
X123980Y109102D01*
X143028D01*
X143220Y108641D01*
X124398Y89818D01*
X123789Y89904D01*
X123651Y90145D01*
X123671Y90221D01*
X123703Y90268D01*
X123763Y90571D01*
Y91122D01*
X123703Y91425D01*
X123671Y91472D01*
X123573Y91831D01*
X123671Y92189D01*
X123703Y92237D01*
X123763Y92539D01*
Y93090D01*
X123703Y93393D01*
X123532Y93650D01*
X123275Y93821D01*
X122972Y93881D01*
X117382D01*
X117099Y93825D01*
X116106D01*
X116071Y93877D01*
X115575Y94209D01*
X114990Y94325D01*
X114404Y94209D01*
X113908Y93877D01*
X113577Y93381D01*
X113460Y92796D01*
X113577Y92211D01*
X113908Y91715D01*
X114404Y91383D01*
X114990Y91267D01*
X115575Y91383D01*
X115940Y91627D01*
X116416Y91530D01*
X116514Y91477D01*
X116624Y91286D01*
X116591Y91122D01*
Y90571D01*
X116651Y90268D01*
X116683Y90221D01*
X116782Y89862D01*
X116683Y89504D01*
X116651Y89456D01*
X116591Y89153D01*
Y88602D01*
X116651Y88300D01*
X116683Y88252D01*
X116782Y87894D01*
X116683Y87535D01*
X116651Y87488D01*
X116591Y87185D01*
Y86634D01*
X116651Y86331D01*
X116823Y86075D01*
X117079Y85903D01*
X117382Y85843D01*
X120139D01*
X120245Y85822D01*
X122022D01*
X122213Y85360D01*
X115372Y78518D01*
X13492D01*
X13193Y79240D01*
X12639Y79961D01*
X11918Y80515D01*
X11078Y80863D01*
X10177Y80981D01*
X9275Y80863D01*
X8435Y80515D01*
X7714Y79961D01*
X7161Y79240D01*
X6813Y78400D01*
X6694Y77499D01*
X6813Y76597D01*
X7161Y75758D01*
X7714Y75036D01*
X8435Y74483D01*
X9275Y74135D01*
X10177Y74016D01*
X11078Y74135D01*
X11918Y74483D01*
X12639Y75036D01*
X13193Y75758D01*
X13492Y76479D01*
X115794D01*
X116184Y76557D01*
X116515Y76778D01*
X124334Y84597D01*
X124774Y84383D01*
X124796Y84351D01*
X124741Y84075D01*
Y78484D01*
X124787Y78249D01*
Y53511D01*
X124865Y53121D01*
X125086Y52790D01*
X129666Y48210D01*
Y41295D01*
X129508Y41059D01*
X129411Y40571D01*
X129508Y40084D01*
X129784Y39670D01*
X130198Y39394D01*
X130685Y39297D01*
X131173Y39394D01*
X131587Y39670D01*
X131863Y40084D01*
X131960Y40571D01*
X131863Y41059D01*
X131705Y41295D01*
Y48633D01*
X131628Y49023D01*
X131406Y49354D01*
X126827Y53934D01*
Y77400D01*
X126944Y77512D01*
X127327Y77728D01*
X127500Y77693D01*
X128051D01*
X128225Y77728D01*
X128607Y77512D01*
X128725Y77400D01*
Y67063D01*
X128802Y66673D01*
X129023Y66342D01*
X134373Y60992D01*
X134704Y60771D01*
X135094Y60694D01*
X167306D01*
X167437Y60606D01*
X167925Y60509D01*
X168413Y60606D01*
X168826Y60882D01*
X169103Y61295D01*
X169200Y61783D01*
X169103Y62271D01*
X168826Y62684D01*
X168413Y62961D01*
X167925Y63058D01*
X167437Y62961D01*
X167096Y62733D01*
X145082D01*
X144740Y63233D01*
X144786Y63463D01*
X144689Y63951D01*
X144531Y64187D01*
Y69217D01*
X144453Y69607D01*
X144232Y69938D01*
X140606Y73564D01*
Y77400D01*
X140724Y77512D01*
X141106Y77728D01*
X141279Y77693D01*
X141831D01*
X142133Y77754D01*
X142181Y77785D01*
X142539Y77884D01*
X142898Y77785D01*
X142945Y77754D01*
X143248Y77693D01*
X143799D01*
X144102Y77754D01*
X144358Y77925D01*
X144530Y78182D01*
X144590Y78484D01*
Y84075D01*
X144530Y84377D01*
X144358Y84634D01*
X144102Y84805D01*
X143799Y84866D01*
X143248D01*
X142945Y84805D01*
X142898Y84774D01*
X142539Y84675D01*
X142181Y84774D01*
X142133Y84805D01*
X141831Y84866D01*
X141279D01*
X140977Y84805D01*
X140929Y84774D01*
X140571Y84675D01*
X140212Y84774D01*
X140165Y84805D01*
X139862Y84866D01*
X139311D01*
X139008Y84805D01*
X138961Y84774D01*
X138602Y84675D01*
X138244Y84774D01*
X138196Y84805D01*
X137894Y84866D01*
X137343D01*
X137040Y84805D01*
X136992Y84774D01*
X136634Y84675D01*
X136275Y84774D01*
X136228Y84805D01*
X135925Y84866D01*
X135374D01*
X135071Y84805D01*
X135024Y84774D01*
X134665Y84675D01*
X134307Y84774D01*
X134259Y84805D01*
X133957Y84866D01*
X133405D01*
X133103Y84805D01*
X133055Y84774D01*
X132697Y84675D01*
X132338Y84774D01*
X132291Y84805D01*
X131988Y84866D01*
X131437D01*
X131134Y84805D01*
X131087Y84774D01*
X130728Y84675D01*
X130370Y84774D01*
X130322Y84805D01*
X130020Y84866D01*
X129469D01*
X129295Y84831D01*
X128913Y85047D01*
X128795Y85159D01*
Y86480D01*
X143152Y100837D01*
X143431Y100892D01*
X143844Y101169D01*
X144121Y101582D01*
X144218Y102070D01*
X144121Y102557D01*
X143844Y102971D01*
X143641Y103106D01*
X143793Y103606D01*
X149211D01*
X149323Y103489D01*
X149539Y103106D01*
X149504Y102933D01*
Y102382D01*
X149565Y102079D01*
X149596Y102032D01*
X149695Y101673D01*
X149596Y101315D01*
X149565Y101267D01*
X149504Y100965D01*
Y100413D01*
X149565Y100111D01*
X149596Y100063D01*
X149695Y99705D01*
X149596Y99346D01*
X149565Y99299D01*
X149504Y98996D01*
Y98445D01*
X149565Y98142D01*
X149596Y98095D01*
X149695Y97736D01*
X149596Y97378D01*
X149565Y97330D01*
X149504Y97028D01*
Y96476D01*
X149565Y96174D01*
X149596Y96126D01*
X149695Y95768D01*
X149596Y95409D01*
X149565Y95362D01*
X149504Y95059D01*
Y94508D01*
X149565Y94205D01*
X149596Y94158D01*
X149695Y93799D01*
X149596Y93441D01*
X149565Y93393D01*
X149504Y93090D01*
Y92539D01*
X149565Y92237D01*
X149596Y92189D01*
X149695Y91831D01*
X149596Y91472D01*
X149565Y91425D01*
X149504Y91122D01*
Y90571D01*
X149565Y90268D01*
X149596Y90221D01*
X149695Y89862D01*
X149596Y89504D01*
X149565Y89456D01*
X149504Y89153D01*
Y88602D01*
X149565Y88300D01*
X149596Y88252D01*
X149695Y87894D01*
X149596Y87535D01*
X149565Y87488D01*
X149504Y87185D01*
Y86634D01*
X149565Y86331D01*
X149736Y86075D01*
X149993Y85903D01*
X150295Y85843D01*
X155235D01*
X156638Y84440D01*
X156968Y84219D01*
X157359Y84142D01*
X169636D01*
X169872Y83984D01*
X170360Y83887D01*
X170848Y83984D01*
X171105Y84156D01*
X171588Y83951D01*
X171605Y83934D01*
Y54033D01*
X153724Y36152D01*
X153646Y36204D01*
X153159Y36301D01*
X152671Y36204D01*
X152257Y35928D01*
X151981Y35514D01*
X151884Y35026D01*
X151981Y34539D01*
X152257Y34125D01*
X152671Y33849D01*
X152829Y33817D01*
X153067Y33713D01*
X153213Y33275D01*
X152921Y32856D01*
X145722D01*
X145136Y32739D01*
X144640Y32408D01*
X131168Y18935D01*
X130706Y19127D01*
Y24759D01*
X144307Y38360D01*
X147868D01*
Y44872D01*
X142144D01*
Y40523D01*
X140456Y38835D01*
X139994Y39026D01*
Y44872D01*
X138151D01*
Y54380D01*
X140842D01*
Y59317D01*
X134842D01*
Y54380D01*
X136112D01*
Y44872D01*
X134270D01*
Y38360D01*
X139327D01*
X139519Y37898D01*
X128095Y26474D01*
X127763Y25978D01*
X127647Y25392D01*
Y18037D01*
X125920D01*
Y15490D01*
X116720D01*
X116573Y15461D01*
X113465D01*
Y14325D01*
X108431D01*
X105410Y17345D01*
X104914Y17677D01*
X104329Y17793D01*
X95996D01*
X95411Y17677D01*
X94915Y17345D01*
X94519Y16950D01*
X94057Y17141D01*
Y27650D01*
X99524D01*
Y35936D01*
X108883Y45295D01*
X127433D01*
X128018Y45411D01*
X128514Y45743D01*
X128846Y46239D01*
X128962Y46824D01*
X128846Y47409D01*
X128514Y47906D01*
X128018Y48237D01*
X127433Y48354D01*
X108249D01*
X107664Y48237D01*
X107168Y47906D01*
X97361Y38098D01*
X93678D01*
Y45163D01*
X93562Y45749D01*
X93230Y46245D01*
X92734Y46576D01*
X92149Y46693D01*
X91563Y46576D01*
X91067Y46245D01*
X90736Y45749D01*
X90619Y45163D01*
Y38098D01*
X85532D01*
Y29812D01*
X84872Y29153D01*
X63347D01*
Y30624D01*
X58410D01*
Y24624D01*
X63347D01*
Y26094D01*
X85505D01*
X86091Y26211D01*
X86587Y26542D01*
X87694Y27650D01*
X90998D01*
Y15264D01*
X90059D01*
Y4815D01*
X94996D01*
Y13101D01*
X96630Y14734D01*
X103695D01*
X106716Y11714D01*
X107212Y11382D01*
X107797Y11266D01*
X113465D01*
Y10130D01*
X119976D01*
Y12431D01*
X125920D01*
Y12313D01*
X131372D01*
X131563Y11851D01*
X130269Y10557D01*
X125920D01*
Y4832D01*
X132432D01*
Y8394D01*
X138056Y14018D01*
X141429D01*
Y12685D01*
X147941D01*
Y18409D01*
X141429D01*
Y17077D01*
X137423D01*
X136838Y16960D01*
X136341Y16629D01*
X132894Y13182D01*
X132432Y13373D01*
Y15874D01*
X146355Y29797D01*
X156849D01*
X157434Y29913D01*
X157930Y30245D01*
X172532Y44846D01*
X213575D01*
Y41134D01*
X219299D01*
Y50008D01*
X217966D01*
Y69120D01*
X229042Y80195D01*
X229373Y80691D01*
X229489Y81276D01*
X229373Y81861D01*
X229042Y82358D01*
X228545Y82689D01*
X227960Y82806D01*
X227375Y82689D01*
X226879Y82358D01*
X215356Y70834D01*
X215024Y70338D01*
X214908Y69753D01*
Y50008D01*
X213575D01*
Y47905D01*
X171898D01*
X171313Y47789D01*
X171000Y47580D01*
X170681Y47968D01*
X174972Y52259D01*
X175171Y52556D01*
X175241Y52908D01*
Y84588D01*
X175437Y84656D01*
X175741Y84671D01*
X175968Y84330D01*
X176382Y84054D01*
X176870Y83957D01*
X177357Y84054D01*
X177771Y84330D01*
X178047Y84744D01*
X178103Y85023D01*
X206361Y113281D01*
X206582Y113612D01*
X206660Y114002D01*
Y142546D01*
X210357Y146243D01*
X210819Y146051D01*
Y140827D01*
X217724D01*
Y147732D01*
X212500D01*
X212309Y148194D01*
X215556Y151442D01*
X215834D01*
X215927Y151380D01*
X216415Y151283D01*
X216902Y151380D01*
X217316Y151656D01*
X217592Y152070D01*
X217689Y152557D01*
X217592Y153045D01*
X217392Y153344D01*
X217532Y153739D01*
X217614Y153844D01*
X259097D01*
X259396Y153123D01*
X259949Y152401D01*
X260671Y151848D01*
X261511Y151500D01*
X262412Y151381D01*
X263313Y151500D01*
X264153Y151848D01*
X264875Y152401D01*
X265428Y153123D01*
X265776Y153963D01*
X265895Y154864D01*
X265776Y155765D01*
X265428Y156605D01*
X264875Y157326D01*
X264153Y157880D01*
X263313Y158228D01*
X262412Y158346D01*
D02*
G37*
G36*
X160340Y148612D02*
X160326Y148610D01*
X146134D01*
X145549Y148493D01*
X145053Y148162D01*
X144721Y147666D01*
X144605Y147080D01*
X144721Y146495D01*
X145053Y145999D01*
X145549Y145667D01*
X146134Y145551D01*
X160337D01*
X160922Y145667D01*
X161418Y145999D01*
X161421Y146002D01*
X161753Y146498D01*
X161869Y147083D01*
X161753Y147668D01*
X161421Y148164D01*
X160925Y148496D01*
X160340Y148612D01*
D02*
G37*
G36*
X30755Y143450D02*
X23849D01*
Y136545D01*
X30755D01*
Y143450D01*
D02*
G37*
G36*
X17302Y143480D02*
X16401Y143361D01*
X15561Y143014D01*
X14839Y142460D01*
X14286Y141739D01*
X13938Y140899D01*
X13819Y139997D01*
X13938Y139096D01*
X14286Y138256D01*
X14839Y137535D01*
X15561Y136981D01*
X16401Y136634D01*
X17302Y136515D01*
X18203Y136634D01*
X19043Y136981D01*
X19764Y137535D01*
X20318Y138256D01*
X20666Y139096D01*
X20784Y139997D01*
X20666Y140899D01*
X20318Y141739D01*
X19764Y142460D01*
X19043Y143014D01*
X18203Y143361D01*
X17302Y143480D01*
D02*
G37*
G36*
X262412Y138347D02*
X261511Y138228D01*
X260671Y137880D01*
X259949Y137327D01*
X259396Y136605D01*
X259048Y135765D01*
X258929Y134864D01*
X259048Y133963D01*
X259396Y133123D01*
X259949Y132401D01*
X260671Y131848D01*
X261511Y131500D01*
X262412Y131381D01*
X263313Y131500D01*
X264153Y131848D01*
X264875Y132401D01*
X265428Y133123D01*
X265776Y133963D01*
X265895Y134864D01*
X265776Y135765D01*
X265428Y136605D01*
X264875Y137327D01*
X264153Y137880D01*
X263313Y138228D01*
X262412Y138347D01*
D02*
G37*
G36*
X60786Y139553D02*
X59677Y139407D01*
X58643Y138979D01*
X57755Y138297D01*
X57074Y137409D01*
X56646Y136376D01*
X56499Y135266D01*
X56646Y134157D01*
X57074Y133123D01*
X57755Y132235D01*
X58643Y131554D01*
X59677Y131126D01*
X60786Y130980D01*
X61896Y131126D01*
X62929Y131554D01*
X63817Y132235D01*
X64499Y133123D01*
X64927Y134157D01*
X65073Y135266D01*
X64927Y136376D01*
X64499Y137409D01*
X63817Y138297D01*
X62929Y138979D01*
X61896Y139407D01*
X60786Y139553D01*
D02*
G37*
G36*
X214272Y137762D02*
X213370Y137643D01*
X212530Y137295D01*
X211809Y136742D01*
X211256Y136021D01*
X210908Y135181D01*
X210789Y134280D01*
X210908Y133378D01*
X211256Y132538D01*
X211809Y131817D01*
X212530Y131264D01*
X213370Y130916D01*
X214272Y130797D01*
X215173Y130916D01*
X216013Y131264D01*
X216734Y131817D01*
X217288Y132538D01*
X217635Y133378D01*
X217754Y134280D01*
X217635Y135181D01*
X217288Y136021D01*
X216734Y136742D01*
X216013Y137295D01*
X215173Y137643D01*
X214272Y137762D01*
D02*
G37*
G36*
X27302Y133480D02*
X26401Y133361D01*
X25561Y133013D01*
X24839Y132460D01*
X24286Y131739D01*
X23938Y130899D01*
X23819Y129998D01*
X23938Y129096D01*
X24286Y128256D01*
X24839Y127535D01*
X25561Y126981D01*
X26401Y126634D01*
X27302Y126515D01*
X28203Y126634D01*
X29043Y126981D01*
X29764Y127535D01*
X30318Y128256D01*
X30666Y129096D01*
X30784Y129998D01*
X30666Y130899D01*
X30318Y131739D01*
X29764Y132460D01*
X29043Y133013D01*
X28203Y133361D01*
X27302Y133480D01*
D02*
G37*
G36*
X17302D02*
X16401Y133361D01*
X15561Y133013D01*
X14839Y132460D01*
X14286Y131739D01*
X13938Y130899D01*
X13819Y129998D01*
X13938Y129096D01*
X14286Y128256D01*
X14839Y127535D01*
X15561Y126981D01*
X16401Y126634D01*
X17302Y126515D01*
X18203Y126634D01*
X19043Y126981D01*
X19764Y127535D01*
X20318Y128256D01*
X20666Y129096D01*
X20784Y129998D01*
X20666Y130899D01*
X20318Y131739D01*
X19764Y132460D01*
X19043Y133013D01*
X18203Y133361D01*
X17302Y133480D01*
D02*
G37*
G36*
X214272Y127762D02*
X213370Y127643D01*
X212530Y127295D01*
X211809Y126742D01*
X211256Y126021D01*
X210908Y125181D01*
X210789Y124279D01*
X210908Y123378D01*
X211256Y122538D01*
X211809Y121817D01*
X212530Y121264D01*
X213370Y120916D01*
X214272Y120797D01*
X215173Y120916D01*
X216013Y121264D01*
X216734Y121817D01*
X217288Y122538D01*
X217635Y123378D01*
X217754Y124279D01*
X217635Y125181D01*
X217288Y126021D01*
X216734Y126742D01*
X216013Y127295D01*
X215173Y127643D01*
X214272Y127762D01*
D02*
G37*
G36*
X258669Y109063D02*
X252945D01*
Y100189D01*
X258669D01*
Y109063D01*
D02*
G37*
G36*
X214378Y97449D02*
X206685D01*
Y92118D01*
X214378D01*
Y97449D01*
D02*
G37*
G36*
Y89575D02*
X206685D01*
Y84244D01*
X214378D01*
Y89575D01*
D02*
G37*
G36*
Y81701D02*
X206685D01*
Y76370D01*
X214378D01*
Y81701D01*
D02*
G37*
G36*
X147736Y84866D02*
X147185D01*
X146882Y84805D01*
X146626Y84634D01*
X146454Y84377D01*
X146394Y84075D01*
Y78484D01*
X146454Y78182D01*
X146473Y78154D01*
Y77028D01*
X146379Y76966D01*
X146048Y76470D01*
X145931Y75884D01*
X146048Y75299D01*
X146379Y74803D01*
X146443Y74740D01*
X146939Y74408D01*
X147524Y74292D01*
X148109Y74408D01*
X148605Y74740D01*
X148937Y75236D01*
X149053Y75821D01*
X148937Y76406D01*
X148605Y76902D01*
X148542Y76966D01*
X148512Y76986D01*
Y78408D01*
X148527Y78484D01*
Y84075D01*
X148467Y84377D01*
X148295Y84634D01*
X148039Y84805D01*
X147736Y84866D01*
D02*
G37*
G36*
X214378Y73827D02*
X206685D01*
Y68496D01*
X214378D01*
Y73827D01*
D02*
G37*
G36*
X65854Y71071D02*
X61705D01*
Y65346D01*
X65854D01*
Y67097D01*
X74698D01*
X74704Y67088D01*
X75200Y66756D01*
X75785Y66640D01*
X76370Y66756D01*
X76867Y67088D01*
X77198Y67584D01*
X77315Y68169D01*
X77198Y68755D01*
X76867Y69251D01*
X76370Y69582D01*
X75785Y69699D01*
X75200Y69582D01*
X74808Y69321D01*
X65854D01*
Y71071D01*
D02*
G37*
G36*
X214378Y65953D02*
X206685D01*
Y60622D01*
X214378D01*
Y65953D01*
D02*
G37*
G36*
X199682Y73273D02*
X193958D01*
Y69123D01*
X198240D01*
X203816Y63547D01*
Y55959D01*
X203754Y55918D01*
X203423Y55422D01*
X203307Y54837D01*
X203423Y54251D01*
X203754Y53755D01*
X204251Y53424D01*
X204836Y53307D01*
X205421Y53424D01*
X205917Y53755D01*
X206185Y54156D01*
X206670Y54079D01*
X206685Y54073D01*
Y52748D01*
X214378D01*
Y58079D01*
X206685D01*
Y55601D01*
X206670Y55595D01*
X206185Y55517D01*
X205917Y55918D01*
X205855Y55959D01*
Y63969D01*
X205778Y64360D01*
X205557Y64691D01*
X199682Y70565D01*
Y73273D01*
D02*
G37*
G36*
X266543Y50008D02*
X260819D01*
Y41134D01*
X266543D01*
Y50008D01*
D02*
G37*
G36*
X259909Y83731D02*
X259422Y83634D01*
X259008Y83358D01*
X258732Y82944D01*
X258676Y82666D01*
X255086Y79075D01*
X254865Y78745D01*
X254787Y78354D01*
Y50008D01*
X252945D01*
Y41134D01*
X258669D01*
Y50008D01*
X256827D01*
Y77932D01*
X260118Y81224D01*
X260397Y81279D01*
X260810Y81555D01*
X261087Y81969D01*
X261184Y82457D01*
X261087Y82944D01*
X260810Y83358D01*
X260397Y83634D01*
X259909Y83731D01*
D02*
G37*
G36*
X242921Y50008D02*
X237197D01*
Y41134D01*
X242921D01*
Y50008D01*
D02*
G37*
G36*
X227173D02*
X221449D01*
Y41134D01*
X227173D01*
Y50008D01*
D02*
G37*
G36*
X41697Y50304D02*
X36760D01*
Y44304D01*
X41393D01*
X43014Y42683D01*
X43065Y42649D01*
X43082Y42465D01*
X43012Y42082D01*
X42813Y41949D01*
X41912Y41048D01*
X41450Y41240D01*
Y41314D01*
X36513D01*
Y35314D01*
X41450D01*
Y37052D01*
X41950Y37254D01*
X50410Y28794D01*
Y24624D01*
X55347D01*
Y30624D01*
X51176D01*
X42983Y38816D01*
X42897Y39438D01*
X43842Y40383D01*
X45266D01*
X45655Y40123D01*
X46143Y40026D01*
X46630Y40123D01*
X47044Y40399D01*
X47320Y40813D01*
X47417Y41300D01*
X47320Y41788D01*
X47175Y42005D01*
X47045Y42206D01*
X47121Y42751D01*
X47179Y42837D01*
X47276Y43325D01*
X47179Y43813D01*
X46902Y44226D01*
X46489Y44502D01*
X46001Y44599D01*
X45513Y44502D01*
X45125Y44242D01*
X44050D01*
X41697Y46595D01*
Y50304D01*
D02*
G37*
G36*
X29949Y32041D02*
X29364Y31925D01*
X28867Y31593D01*
X28536Y31097D01*
X28419Y30512D01*
Y24783D01*
X26007D01*
Y17877D01*
X31732D01*
Y24783D01*
X31478D01*
Y30512D01*
X31362Y31097D01*
X31030Y31593D01*
X30534Y31925D01*
X29949Y32041D01*
D02*
G37*
G36*
X74177Y15461D02*
X67666D01*
Y13911D01*
X60972D01*
X60387Y13795D01*
X59891Y13463D01*
X57833Y11406D01*
X57351Y11776D01*
X56512Y12124D01*
X55610Y12242D01*
X54709Y12124D01*
X53869Y11776D01*
X53148Y11222D01*
X52594Y10501D01*
X52246Y9661D01*
X52128Y8760D01*
X52246Y7858D01*
X52594Y7019D01*
X53148Y6297D01*
X53869Y5744D01*
X54709Y5396D01*
X55610Y5277D01*
X56512Y5396D01*
X57351Y5744D01*
X58073Y6297D01*
X58626Y7019D01*
X58974Y7858D01*
X59029Y8276D01*
X61606Y10853D01*
X67666D01*
Y10130D01*
X74177D01*
Y11266D01*
X80083D01*
X81004Y10345D01*
Y4815D01*
X85941D01*
Y15264D01*
X81004D01*
Y14561D01*
X80717Y14325D01*
X74177D01*
Y15461D01*
D02*
G37*
G36*
X225847Y16506D02*
X220122D01*
Y9994D01*
X225847D01*
Y12230D01*
X232413D01*
Y9983D01*
X238137D01*
Y16494D01*
X232413D01*
Y14269D01*
X225847D01*
Y16506D01*
D02*
G37*
G36*
X49063Y12213D02*
X42158D01*
Y7505D01*
X31732D01*
Y9428D01*
X26007D01*
Y2523D01*
X31732D01*
Y4446D01*
X42826D01*
X43411Y4563D01*
X43907Y4894D01*
X44320Y5307D01*
X49063D01*
Y12213D01*
D02*
G37*
%LPD*%
G36*
X206526Y153344D02*
X206491Y153321D01*
X206214Y152907D01*
X206159Y152629D01*
X200763Y147233D01*
X200542Y146902D01*
X200464Y146512D01*
Y124890D01*
X200306Y124653D01*
X200209Y124165D01*
X200306Y123678D01*
X200583Y123264D01*
X200996Y122988D01*
X201484Y122891D01*
X201972Y122988D01*
X202385Y123264D01*
X202392Y123275D01*
X202989Y123282D01*
X203403Y123006D01*
X203890Y122909D01*
X204121Y122955D01*
X204621Y122612D01*
Y114425D01*
X176661Y86465D01*
X176382Y86409D01*
X175968Y86133D01*
X175741Y85792D01*
X175437Y85807D01*
X175241Y85875D01*
Y97582D01*
X175171Y97933D01*
X174972Y98231D01*
X169981Y103222D01*
X169683Y103421D01*
X169332Y103491D01*
X156827D01*
X156581Y103986D01*
X156585Y104000D01*
X156616Y104048D01*
X156677Y104350D01*
Y104902D01*
X156616Y105204D01*
X156445Y105461D01*
X156188Y105632D01*
X155886Y105692D01*
X150295D01*
X150060Y105646D01*
X143762D01*
X143571Y106107D01*
X145066Y107603D01*
X147982D01*
X148373Y107680D01*
X148703Y107901D01*
X149020Y108217D01*
X149553Y108044D01*
X149565Y107985D01*
X149736Y107728D01*
X149993Y107557D01*
X150295Y107497D01*
X152957D01*
X153182Y107452D01*
X153407Y107497D01*
X155886D01*
X156188Y107557D01*
X156445Y107728D01*
X156577Y107925D01*
X158628Y109977D01*
X158701Y109962D01*
X159286Y110079D01*
X159783Y110410D01*
X160114Y110906D01*
X160231Y111492D01*
X160114Y112077D01*
X159783Y112573D01*
X159286Y112905D01*
X158701Y113021D01*
X158116Y112905D01*
X157620Y112573D01*
X157288Y112077D01*
X157172Y111492D01*
X157186Y111419D01*
X155397Y109629D01*
X151085D01*
X150894Y110091D01*
X153125Y112323D01*
X153669Y112159D01*
X153888Y111830D01*
X154302Y111554D01*
X154790Y111457D01*
X155277Y111554D01*
X155691Y111830D01*
X155967Y112244D01*
X156023Y112522D01*
X169612Y126111D01*
X174515D01*
X174752Y125954D01*
X175239Y125857D01*
X175727Y125954D01*
X176141Y126230D01*
X176417Y126643D01*
X176514Y127131D01*
X176417Y127619D01*
X176141Y128032D01*
X175727Y128309D01*
X175239Y128406D01*
X174752Y128309D01*
X174515Y128151D01*
X169660D01*
X169453Y128651D01*
X194647Y153844D01*
X197823D01*
X197965Y153507D01*
X198000Y153344D01*
X197744Y152961D01*
X197689Y152682D01*
X194233Y149227D01*
X194012Y148896D01*
X193935Y148506D01*
Y124890D01*
X193777Y124653D01*
X193680Y124165D01*
X193777Y123678D01*
X194053Y123264D01*
X194467Y122988D01*
X194954Y122891D01*
X195442Y122988D01*
X195855Y123264D01*
X196132Y123678D01*
X196229Y124165D01*
X196132Y124653D01*
X195974Y124890D01*
Y148084D01*
X196791Y148900D01*
X197251Y148654D01*
X197221Y148501D01*
Y125017D01*
X197063Y124781D01*
X196966Y124293D01*
X197063Y123806D01*
X197339Y123392D01*
X197753Y123116D01*
X198240Y123019D01*
X198728Y123116D01*
X199142Y123392D01*
X199418Y123806D01*
X199515Y124293D01*
X199418Y124781D01*
X199260Y125017D01*
Y148079D01*
X202566Y151384D01*
X202845Y151440D01*
X203258Y151716D01*
X203534Y152130D01*
X203631Y152617D01*
X203534Y153105D01*
X203374Y153344D01*
X203602Y153844D01*
X206374D01*
X206526Y153344D01*
D02*
G37*
D14*
X147461Y75884D02*
X147492Y75916D01*
X125756Y114193D02*
X125810Y114247D01*
X120075Y108512D02*
X120177Y108614D01*
X120245Y86842D02*
X123016D01*
X124248Y88074D01*
Y88227D01*
X144643Y108622D01*
X147982D01*
X120177Y86910D02*
X120245Y86842D01*
X143509Y114208D02*
Y140290D01*
Y114208D02*
X143524Y114193D01*
X143493Y139430D02*
Y139886D01*
X139371Y114409D02*
X139587Y114193D01*
X139371Y114409D02*
Y141796D01*
X141555Y114193D02*
Y141558D01*
X194224Y154864D02*
X262412D01*
X147982Y108622D02*
X194224Y154864D01*
X47338Y192370D02*
X64276D01*
X64450Y192197D01*
X47338Y192370D02*
X47356Y192352D01*
X39907Y184903D02*
X47356Y192352D01*
X38695Y184903D02*
X39907D01*
X194954Y124165D02*
Y148506D01*
X151282Y94784D02*
X163564D01*
X153095Y96748D02*
X153095Y96748D01*
X175374Y127131D02*
X175391Y127114D01*
X142927Y102053D02*
X143094D01*
X169189Y127131D02*
X175374D01*
X127776Y86902D02*
X142927Y102053D01*
X198240Y124293D02*
Y148501D01*
X201484Y146512D02*
X207392Y152420D01*
X205640Y114002D02*
Y142968D01*
X203890Y124183D02*
Y144299D01*
X154790Y112731D02*
X169189Y127131D01*
X127776Y81279D02*
Y86902D01*
X142769Y104626D02*
X153091D01*
X125748Y87606D02*
X142769Y104626D01*
X177740Y73642D02*
X213661Y109563D01*
X247933Y104626D02*
Y106201D01*
X168023Y61713D02*
X168076Y61767D01*
X135094Y61713D02*
X168023D01*
X129744Y67063D02*
X135094Y61713D01*
X129744Y67063D02*
Y81279D01*
X130685Y40571D02*
Y48633D01*
X125807Y53511D02*
X130685Y48633D01*
X125807Y53511D02*
Y81279D01*
X177740Y61856D02*
Y73642D01*
X176870Y85232D02*
X205640Y114002D01*
X244571Y109563D02*
X247933Y106201D01*
X213661Y109563D02*
X244571D01*
X256175Y113707D02*
X263681Y106201D01*
X242864Y127018D02*
X256175Y113707D01*
X211941D02*
X256175D01*
X219818Y116291D02*
Y129826D01*
X219757Y116230D02*
X219818Y116291D01*
X216319Y152462D02*
X216415Y152557D01*
X215134Y152462D02*
X216319D01*
X205640Y142968D02*
X215134Y152462D01*
X163564Y94784D02*
X163565Y94784D01*
X203890Y144299D02*
X212007Y152416D01*
X201484Y124165D02*
Y146512D01*
X198240Y148501D02*
X202357Y152617D01*
X194954Y148506D02*
X198922Y152473D01*
X153091Y88878D02*
X160564D01*
X145936Y151234D02*
X163488D01*
X137618Y142916D02*
X145936Y151234D01*
X264049Y148817D02*
X271641Y141225D01*
Y104712D02*
Y141225D01*
X271555Y104626D02*
X271641Y104712D01*
X153095Y96748D02*
X162022D01*
X153091Y96752D02*
X153095Y96748D01*
X153091Y98721D02*
X159324D01*
X153091Y92815D02*
X164010D01*
X164836Y91989D02*
X164971D01*
X164010Y92815D02*
X164836Y91989D01*
X161626Y89937D02*
X166868D01*
X160717Y90847D02*
X161626Y89937D01*
X153091Y90847D02*
X160717D01*
X161695Y87747D02*
X168813D01*
X160564Y88878D02*
X161695Y87747D01*
X155610Y86910D02*
X157359Y85161D01*
X153091Y86910D02*
X155610D01*
X157359Y85161D02*
X170360D01*
X114650Y111443D02*
X115971Y110122D01*
X34121Y111443D02*
X114650D01*
X10177Y87499D02*
X34121Y111443D01*
X137618Y114193D02*
Y142916D01*
X205295Y10630D02*
Y18841D01*
X211532Y25078D01*
X216961D01*
X223098Y31215D01*
X204836Y54837D02*
Y63969D01*
X197607Y71198D02*
X204836Y63969D01*
X196820Y71198D02*
X197607D01*
X219818Y129826D02*
X224272Y134280D01*
X220319Y145917D02*
X223219Y148817D01*
X264049D01*
X220319Y138232D02*
Y145917D01*
Y138232D02*
X224272Y134280D01*
X241534Y127018D02*
X242864D01*
X224272Y144280D02*
X241534Y127018D01*
X263681Y104626D02*
Y106201D01*
X215618Y31215D02*
Y31609D01*
X211717Y35509D02*
X215618Y31609D01*
X197585Y35509D02*
X211717D01*
X196511Y36584D02*
X197585Y35509D01*
X223098Y31215D02*
X228823Y36940D01*
Y58480D01*
X240059Y103051D02*
Y104626D01*
Y97538D02*
Y103051D01*
X228823Y58480D02*
X242129Y71787D01*
Y95468D01*
X240059Y97538D02*
X242129Y95468D01*
X240059Y103051D02*
X246876Y96235D01*
X249414D01*
X235264Y13250D02*
X235275Y13239D01*
X222984Y13250D02*
X235264D01*
X255807Y78354D02*
X259909Y82457D01*
X255807Y45571D02*
Y78354D01*
X235889Y95953D02*
Y99348D01*
X232185Y103051D02*
Y104626D01*
Y103051D02*
X235889Y99348D01*
X10177Y77499D02*
X115794D01*
X125748Y87453D01*
Y87606D01*
X135701Y114244D02*
Y138341D01*
X135756Y138397D01*
X135650Y114193D02*
X135701Y114244D01*
X48695Y184903D02*
X54248Y190457D01*
X62322D01*
X147409Y114142D02*
X147461Y114193D01*
X147409Y111235D02*
Y114142D01*
X115971Y110122D02*
X146296D01*
X147409Y111235D01*
X101574Y102657D02*
X120177D01*
X100480Y103751D02*
X101574Y102657D01*
X100345Y103751D02*
X100480D01*
X105796Y104657D02*
X105812Y104642D01*
X133681Y114193D02*
Y130925D01*
X127489Y137117D02*
X133681Y130925D01*
X85653Y137117D02*
X127489D01*
X35408Y154880D02*
X67890D01*
X85653Y137117D01*
X147492Y75916D02*
Y81248D01*
X137618Y65072D02*
Y81279D01*
X139587Y73142D02*
Y81279D01*
Y73142D02*
X143511Y69217D01*
Y63463D02*
Y69217D01*
X114990Y92796D02*
X114999Y92805D01*
X114808Y108456D02*
X114864Y108512D01*
X125810Y119714D02*
X125813Y119717D01*
X105812Y104642D02*
X120161D01*
X120177Y104626D01*
X125810Y114247D02*
Y119714D01*
X114864Y108512D02*
X120075D01*
X155772Y108563D02*
X158701Y111492D01*
X153091Y108563D02*
X155772D01*
X147461Y81280D02*
X147492Y81248D01*
X114999Y92805D02*
X120168D01*
X120177Y92815D01*
X137618Y65072D02*
X137842Y64848D01*
X137132Y56139D02*
X137842Y56848D01*
X137132Y41616D02*
Y56139D01*
X209350Y63287D02*
X210531D01*
X131713Y81279D02*
X131764Y81228D01*
X133681Y81279D02*
X133732Y81228D01*
X209350Y86910D02*
X210531D01*
X153091Y108563D02*
X153182Y108472D01*
D18*
X265601Y32449D02*
D03*
Y24969D02*
D03*
X245013Y32449D02*
D03*
Y24969D02*
D03*
X129176Y7694D02*
D03*
Y15175D02*
D03*
X144685Y7673D02*
D03*
Y15547D02*
D03*
D19*
X137842Y64848D02*
D03*
Y56848D02*
D03*
D20*
X52878Y27624D02*
D03*
X60878D02*
D03*
X30982Y38314D02*
D03*
X38982D02*
D03*
X39228Y47304D02*
D03*
X31228D02*
D03*
D21*
X223098Y31215D02*
D03*
X215618D02*
D03*
X215504Y13250D02*
D03*
X222984D02*
D03*
X235275Y13239D02*
D03*
X243149D02*
D03*
X137132Y41616D02*
D03*
X145006D02*
D03*
D22*
X7879Y37774D02*
D03*
Y45353D02*
D03*
D23*
X19985Y36445D02*
D03*
Y39004D02*
D03*
Y41563D02*
D03*
Y44122D02*
D03*
Y46681D02*
D03*
D24*
X168952Y36584D02*
D03*
X196511D02*
D03*
D25*
X28869Y21330D02*
D03*
Y5976D02*
D03*
D26*
X169261Y71198D02*
D03*
X196820D02*
D03*
D27*
X271555Y45571D02*
D03*
X263681D02*
D03*
X255807D02*
D03*
X247933D02*
D03*
X240059D02*
D03*
X232185D02*
D03*
X224311D02*
D03*
X216437D02*
D03*
Y104626D02*
D03*
X224311D02*
D03*
X232185D02*
D03*
X240059D02*
D03*
X247933D02*
D03*
X255807D02*
D03*
X263681D02*
D03*
X271555D02*
D03*
D28*
X210531Y55413D02*
D03*
Y63287D02*
D03*
Y71161D02*
D03*
Y79035D02*
D03*
Y86910D02*
D03*
Y94784D02*
D03*
D29*
X70921Y12795D02*
D03*
Y6890D02*
D03*
X116720D02*
D03*
Y12795D02*
D03*
D30*
X92528Y32874D02*
D03*
D31*
X83472Y10039D02*
D03*
X92528D02*
D03*
X101583D02*
D03*
D32*
X120177Y108563D02*
D03*
Y106595D02*
D03*
Y104626D02*
D03*
Y102657D02*
D03*
Y100689D02*
D03*
Y98721D02*
D03*
Y96752D02*
D03*
Y94784D02*
D03*
Y92815D02*
D03*
Y90847D02*
D03*
Y88878D02*
D03*
Y86910D02*
D03*
X153091D02*
D03*
Y88878D02*
D03*
Y90847D02*
D03*
Y92815D02*
D03*
Y94784D02*
D03*
Y96752D02*
D03*
Y98721D02*
D03*
Y100689D02*
D03*
Y102657D02*
D03*
Y104626D02*
D03*
Y106595D02*
D03*
Y108563D02*
D03*
D33*
X125807Y81279D02*
D03*
X127776D02*
D03*
X129744D02*
D03*
X131713D02*
D03*
X133681D02*
D03*
X135650D02*
D03*
X137618D02*
D03*
X139587D02*
D03*
X141555D02*
D03*
X143524D02*
D03*
X145492D02*
D03*
X147461D02*
D03*
Y114193D02*
D03*
X145492D02*
D03*
X143524D02*
D03*
X141555D02*
D03*
X139587D02*
D03*
X137618D02*
D03*
X135650D02*
D03*
X133681D02*
D03*
X131713D02*
D03*
X129744D02*
D03*
X127776D02*
D03*
X125807D02*
D03*
D34*
X63779Y68209D02*
D03*
Y95768D02*
D03*
D60*
X116720Y13961D02*
X127962D01*
X115555Y12795D02*
X116720Y13961D01*
X92528Y34547D02*
X95972D01*
X90756D02*
X92528D01*
X90756D02*
X92149Y35940D01*
X90756Y32874D02*
Y34547D01*
X65521Y194447D02*
X67586Y192382D01*
X2849Y156482D02*
X40814Y194447D01*
X65521D01*
X70508Y12382D02*
X70921Y12795D01*
X60972Y12382D02*
X70508D01*
X57350Y8760D02*
X60972Y12382D01*
X55610Y8760D02*
X57350D01*
X252008Y175268D02*
X262412Y164864D01*
X252008Y175268D02*
Y185044D01*
X244670Y192382D02*
X252008Y185044D01*
X67586Y192382D02*
X244670D01*
X171898Y46376D02*
X199337D01*
X156849Y31326D02*
X171898Y46376D01*
X146134Y147080D02*
X160337D01*
X160340Y147083D01*
X92528Y32874D02*
Y34547D01*
Y12795D02*
Y32874D01*
X215290Y13464D02*
X215504Y13250D01*
X215290Y13464D02*
Y22212D01*
X199337Y46376D02*
X215632D01*
X127962Y13961D02*
X129176Y15175D01*
X216437Y69753D02*
X227960Y81276D01*
X216437Y45571D02*
Y69753D01*
X215632Y46376D02*
X216437Y45571D01*
X145722Y31326D02*
X156849D01*
X129570Y15175D02*
X145722Y31326D01*
X129176Y15175D02*
X129570D01*
X137423Y15547D02*
X144386D01*
X2849Y74826D02*
Y156482D01*
Y74826D02*
X10177Y67499D01*
X147461Y75884D02*
X147524Y75821D01*
X26899Y50156D02*
Y56934D01*
X92528Y10039D02*
Y12795D01*
X85505Y27624D02*
X90756Y32874D01*
X60878Y27624D02*
X85505D01*
X80717Y12795D02*
X83472Y10039D01*
X70921Y12795D02*
X80717D01*
X104329Y16264D02*
X107797Y12795D01*
X92528D02*
X95996Y16264D01*
X104329D01*
X107797Y12795D02*
X115555D01*
X144386Y15547D02*
X144685Y15846D01*
X92149Y35940D02*
Y45163D01*
X145006Y41222D02*
Y41616D01*
X108249Y46824D02*
X127433D01*
X95972Y34547D02*
X108249Y46824D01*
X129176Y15175D02*
Y25392D01*
X145006Y41222D01*
X129570Y7694D02*
X137423Y15547D01*
X129176Y7694D02*
X129570D01*
X42826Y5976D02*
X45610Y8760D01*
X28869Y5976D02*
X42826D01*
X28869Y21330D02*
X29949Y22409D01*
Y30512D01*
X16334Y67499D02*
X26899Y56934D01*
X10177Y67499D02*
X16334D01*
D61*
X23630Y44199D02*
X26556Y47125D01*
X20062Y44199D02*
X23630D01*
X19985Y44122D02*
X20062Y44199D01*
X26324Y38804D02*
X30492D01*
X23656Y41471D02*
X26324Y38804D01*
X20077Y41471D02*
X23656D01*
X19985Y41563D02*
X20077Y41471D01*
X154959Y33226D02*
X155492Y33760D01*
X40476Y38314D02*
X42188D01*
X38982D02*
X40476D01*
X43462Y41300D02*
X46143D01*
X40476Y38314D02*
X43462Y41300D01*
X43663Y43332D02*
X43674Y43342D01*
X39690Y47304D02*
X43663Y43332D01*
X39228Y47304D02*
X39690D01*
X43691Y43325D02*
X46001D01*
X43674Y43342D02*
X43691Y43325D01*
X30492Y38804D02*
X30982Y38314D01*
X26556Y47125D02*
X31049D01*
X31228Y47304D01*
X155492Y34077D02*
X174323Y52908D01*
X154132Y35262D02*
X172523Y53653D01*
Y96837D01*
X168691Y100668D02*
X172523Y96837D01*
X153111Y100668D02*
X168691D01*
X153091Y100689D02*
X153111Y100668D01*
X153890Y35262D02*
X154132D01*
X153788Y35160D02*
X153890Y35262D01*
X153293Y35160D02*
X153788D01*
X153159Y35026D02*
X153293Y35160D01*
X169332Y102573D02*
X174323Y97582D01*
X153175Y102573D02*
X169332D01*
X174323Y52908D02*
Y86057D01*
X153091Y102657D02*
X153175Y102573D01*
X155492Y33760D02*
Y34077D01*
X42188Y38314D02*
X52878Y27624D01*
X174323Y86057D02*
Y97582D01*
D62*
X23387Y46644D02*
X26899Y50156D01*
X20023Y46644D02*
X23387D01*
X19985Y46681D02*
X20023Y46644D01*
D63*
X224272Y115893D02*
X224277Y115887D01*
X224272Y115893D02*
Y124279D01*
X224311Y94990D02*
Y104626D01*
Y94990D02*
X224445Y94857D01*
X237092Y24909D02*
X244953D01*
X245013Y24969D01*
Y32449D02*
X247933Y35370D01*
Y45571D01*
X243149Y13239D02*
Y17289D01*
X240702Y19736D02*
X243149Y17289D01*
X236174Y19736D02*
X240702D01*
X233456Y22454D02*
X236174Y19736D01*
X233456Y22454D02*
Y30099D01*
X235807Y32449D01*
X245013D01*
X268303D02*
X269448Y31304D01*
X265601Y32449D02*
X268303D01*
X269448Y22155D02*
Y31304D01*
X268025Y20732D02*
X269448Y22155D01*
X267536Y20732D02*
X268025D01*
X267493Y20776D02*
X267536Y20732D01*
X179339Y6587D02*
X243157D01*
X257346Y20776D02*
X267493D01*
X243157Y6587D02*
X257346Y20776D01*
X175295Y10630D02*
X179339Y6587D01*
X245013Y24969D02*
X265601D01*
Y32449D02*
X271555Y38403D01*
Y45571D01*
X267138Y55562D02*
X271555Y51145D01*
Y45571D02*
Y51145D01*
X97354Y96752D02*
X120177D01*
X88516Y98721D02*
X120177D01*
X93308Y100689D02*
X120177D01*
X63779Y68209D02*
X75746D01*
X85310Y101926D02*
X88516Y98721D01*
X91120Y102877D02*
X93308Y100689D01*
X75746Y68209D02*
X75785Y68169D01*
X63779Y68209D02*
Y68996D01*
D64*
X8863Y30835D02*
D03*
Y52292D02*
D03*
D65*
X20792Y32016D02*
D03*
Y51111D02*
D03*
D66*
X224272Y124279D02*
D03*
X214272D02*
D03*
X224272Y134280D02*
D03*
X214272D02*
D03*
X224272Y144280D02*
D03*
X175295Y10630D02*
D03*
X185295D02*
D03*
X195295D02*
D03*
X205295D02*
D03*
X55610Y8760D02*
D03*
X10177Y97499D02*
D03*
Y87499D02*
D03*
Y77499D02*
D03*
X7302Y129998D02*
D03*
X17302D02*
D03*
X27302D02*
D03*
X7302Y139997D02*
D03*
X17302D02*
D03*
X262412Y164864D02*
D03*
Y154864D02*
D03*
Y144864D02*
D03*
Y134864D02*
D03*
Y124864D02*
D03*
X214864Y185890D02*
D03*
X224864D02*
D03*
X234864D02*
D03*
X244864D02*
D03*
X167020Y184831D02*
D03*
X157020D02*
D03*
X147020D02*
D03*
X137020D02*
D03*
X127020D02*
D03*
X117020D02*
D03*
X107020D02*
D03*
D67*
X214272Y144280D02*
D03*
X10177Y67499D02*
D03*
X262412Y114864D02*
D03*
D68*
X165295Y10630D02*
D03*
X45610Y8760D02*
D03*
X27302Y139997D02*
D03*
X204864Y185890D02*
D03*
X177020Y184831D02*
D03*
D69*
X60786Y135266D02*
D03*
X80786D02*
D03*
X38695Y184903D02*
D03*
X48695D02*
D03*
X58695D02*
D03*
D70*
X117965Y141660D02*
D03*
X107965D02*
D03*
D71*
X68695Y184903D02*
D03*
D72*
X272008Y174882D02*
D03*
X267008Y164882D02*
D03*
X272008Y154882D02*
D03*
Y94882D02*
D03*
Y74882D02*
D03*
Y54882D02*
D03*
Y34882D02*
D03*
X262008Y174882D02*
D03*
X257008Y144882D02*
D03*
Y124882D02*
D03*
X262008Y94882D02*
D03*
X257008Y84882D02*
D03*
X262008Y74882D02*
D03*
Y54882D02*
D03*
X257008Y4882D02*
D03*
X247008Y144882D02*
D03*
X252008Y134882D02*
D03*
Y94882D02*
D03*
Y74882D02*
D03*
Y54882D02*
D03*
Y34882D02*
D03*
X247008Y4882D02*
D03*
X242008Y174882D02*
D03*
X237008Y164882D02*
D03*
X242008Y134882D02*
D03*
X232008Y94882D02*
D03*
X227008Y84882D02*
D03*
X232008Y74882D02*
D03*
Y34882D02*
D03*
X227008Y24882D02*
D03*
X222008Y174882D02*
D03*
Y94882D02*
D03*
X217008Y84882D02*
D03*
X212008Y174882D02*
D03*
X207008Y164882D02*
D03*
Y24882D02*
D03*
X197008Y184882D02*
D03*
X202008Y94882D02*
D03*
Y74882D02*
D03*
Y14882D02*
D03*
X187008Y184882D02*
D03*
X192008Y114882D02*
D03*
Y74882D02*
D03*
Y54882D02*
D03*
Y14882D02*
D03*
X182008Y174882D02*
D03*
Y154882D02*
D03*
X177008Y144882D02*
D03*
X182008Y134882D02*
D03*
X177008Y124882D02*
D03*
X182008Y114882D02*
D03*
Y74882D02*
D03*
Y54882D02*
D03*
Y34882D02*
D03*
X177008Y24882D02*
D03*
X182008Y14882D02*
D03*
X177008Y4882D02*
D03*
X172008Y174882D02*
D03*
X167008Y144882D02*
D03*
X172008Y114882D02*
D03*
X167008Y64882D02*
D03*
Y24882D02*
D03*
X172008Y14882D02*
D03*
X167008Y4882D02*
D03*
X162008Y134882D02*
D03*
X157008Y124882D02*
D03*
X162008Y114882D02*
D03*
Y74882D02*
D03*
X157008Y64882D02*
D03*
X162008Y54882D02*
D03*
X157008Y44882D02*
D03*
Y24882D02*
D03*
Y4882D02*
D03*
X147008Y124882D02*
D03*
Y64882D02*
D03*
Y24882D02*
D03*
X152008Y14882D02*
D03*
X137008Y104882D02*
D03*
X142008Y94882D02*
D03*
Y74882D02*
D03*
Y54882D02*
D03*
X137008Y4882D02*
D03*
X132008Y174882D02*
D03*
X127008Y164882D02*
D03*
Y104882D02*
D03*
X132008Y54882D02*
D03*
X122008Y174882D02*
D03*
X117008Y164882D02*
D03*
X122008Y154882D02*
D03*
Y134882D02*
D03*
Y114882D02*
D03*
X117008Y64882D02*
D03*
X122008Y54882D02*
D03*
X117008Y24882D02*
D03*
X112008Y174882D02*
D03*
X107008Y164882D02*
D03*
X112008Y154882D02*
D03*
X107008Y124882D02*
D03*
Y84882D02*
D03*
Y64882D02*
D03*
X112008Y54882D02*
D03*
X107008Y24882D02*
D03*
Y4882D02*
D03*
X97008Y184882D02*
D03*
X102008Y174882D02*
D03*
X97008Y164882D02*
D03*
X102008Y154882D02*
D03*
X97008Y124882D02*
D03*
Y104882D02*
D03*
Y84882D02*
D03*
X102008Y74882D02*
D03*
X97008Y64882D02*
D03*
X102008Y54882D02*
D03*
X97008Y24882D02*
D03*
Y4882D02*
D03*
X87008Y184882D02*
D03*
X92008Y174882D02*
D03*
X87008Y164882D02*
D03*
X92008Y154882D02*
D03*
X87008Y144882D02*
D03*
X92008Y134882D02*
D03*
X87008Y124882D02*
D03*
X92008Y114882D02*
D03*
X87008Y104882D02*
D03*
Y84882D02*
D03*
Y64882D02*
D03*
Y24882D02*
D03*
Y4882D02*
D03*
X77008Y184882D02*
D03*
X82008Y174882D02*
D03*
X77008Y164882D02*
D03*
X82008Y154882D02*
D03*
X77008Y124882D02*
D03*
Y104882D02*
D03*
Y84882D02*
D03*
Y64882D02*
D03*
X82008Y34882D02*
D03*
X77008Y24882D02*
D03*
Y4882D02*
D03*
X72008Y174882D02*
D03*
X67008Y164882D02*
D03*
X72008Y154882D02*
D03*
X67008Y144882D02*
D03*
X72008Y134882D02*
D03*
X67008Y124882D02*
D03*
Y104882D02*
D03*
X72008Y94882D02*
D03*
X67008Y84882D02*
D03*
X72008Y74882D02*
D03*
Y54882D02*
D03*
Y34882D02*
D03*
X67008Y24882D02*
D03*
X62008Y174882D02*
D03*
X57008Y164882D02*
D03*
Y144882D02*
D03*
Y104882D02*
D03*
Y84882D02*
D03*
Y64882D02*
D03*
X62008Y54882D02*
D03*
Y34882D02*
D03*
X57008Y24882D02*
D03*
X52008Y174882D02*
D03*
X47008Y164882D02*
D03*
Y144882D02*
D03*
X52008Y134882D02*
D03*
X47008Y124882D02*
D03*
X52008Y114882D02*
D03*
X47008Y104882D02*
D03*
X52008Y94882D02*
D03*
Y74882D02*
D03*
X47008Y64882D02*
D03*
X52008Y54882D02*
D03*
Y34882D02*
D03*
X47008Y24882D02*
D03*
X52008Y14882D02*
D03*
X42008Y174882D02*
D03*
X37008Y164882D02*
D03*
Y144882D02*
D03*
X42008Y134882D02*
D03*
X37008Y124882D02*
D03*
Y104882D02*
D03*
Y84882D02*
D03*
X42008Y74882D02*
D03*
X37008Y64882D02*
D03*
X42008Y54882D02*
D03*
X37008Y24882D02*
D03*
X42008Y14882D02*
D03*
X27008Y184882D02*
D03*
X32008Y174882D02*
D03*
X27008Y164882D02*
D03*
Y144882D02*
D03*
X32008Y134882D02*
D03*
X27008Y124882D02*
D03*
X32008Y114882D02*
D03*
Y94882D02*
D03*
X27008Y84882D02*
D03*
X32008Y74882D02*
D03*
X27008Y64882D02*
D03*
X32008Y14882D02*
D03*
X17008Y164882D02*
D03*
X22008Y134882D02*
D03*
X17008Y104882D02*
D03*
X22008Y94882D02*
D03*
X17008Y84882D02*
D03*
X22008Y74882D02*
D03*
Y54882D02*
D03*
X17008Y24882D02*
D03*
X22008Y14882D02*
D03*
X12008Y174882D02*
D03*
X7008Y164882D02*
D03*
X12008Y154882D02*
D03*
X7008Y144882D02*
D03*
X12008Y134882D02*
D03*
X7008Y124882D02*
D03*
X12008Y114882D02*
D03*
X7008Y104882D02*
D03*
Y24882D02*
D03*
X211941Y113707D02*
D03*
X224277Y115887D02*
D03*
X219757Y116230D02*
D03*
X160340Y147083D02*
D03*
X146134Y147080D02*
D03*
X215290Y22212D02*
D03*
X237092Y24909D02*
D03*
X204836Y54837D02*
D03*
X227960Y81276D02*
D03*
X199337Y46376D02*
D03*
X92149Y45163D02*
D03*
X75785Y68169D02*
D03*
X125813Y119717D02*
D03*
X114808Y108456D02*
D03*
X158701Y111492D02*
D03*
X147524Y75821D02*
D03*
X114990Y92796D02*
D03*
X127433Y46824D02*
D03*
X29949Y30512D02*
D03*
X26899Y56934D02*
D03*
D73*
X143509Y140290D02*
D03*
X139371Y141796D02*
D03*
X46001Y43325D02*
D03*
X141555Y141558D02*
D03*
X64450Y192197D02*
D03*
X201484Y124165D02*
D03*
X198240Y124293D02*
D03*
X194954Y124165D02*
D03*
X175239Y127131D02*
D03*
X203890Y124183D02*
D03*
X154790Y112731D02*
D03*
X142943Y102070D02*
D03*
X177740Y61856D02*
D03*
X167925Y61783D02*
D03*
X176870Y85232D02*
D03*
X216415Y152557D02*
D03*
X212007Y152416D02*
D03*
X207392Y152420D02*
D03*
X202357Y152617D02*
D03*
X198922Y152473D02*
D03*
X168813Y87747D02*
D03*
X130685Y40571D02*
D03*
X163724Y151115D02*
D03*
X224445Y94857D02*
D03*
X162022Y96748D02*
D03*
X163565Y94784D02*
D03*
X159324Y98721D02*
D03*
X164971Y91989D02*
D03*
X166868Y89937D02*
D03*
X170360Y85161D02*
D03*
X249414Y96235D02*
D03*
X259909Y82457D02*
D03*
X267138Y55562D02*
D03*
X235889Y95953D02*
D03*
X154573Y33612D02*
D03*
X46143Y41300D02*
D03*
X153159Y35026D02*
D03*
X135756Y138397D02*
D03*
X62322Y190457D02*
D03*
X97354Y96752D02*
D03*
X105796Y104657D02*
D03*
X35408Y154880D02*
D03*
X143511Y63463D02*
D03*
X100345Y103751D02*
D03*
X91120Y102877D02*
D03*
X85310Y101926D02*
D03*
D74*
X11811Y11811D02*
D03*
X263779D02*
D03*
Y185039D02*
D03*
X11811D02*
D03*
M02*
