G04*
G04 #@! TF.GenerationSoftware,Altium Limited,Altium Designer,18.1.6 (161)*
G04*
G04 Layer_Color=65535*
%FSLAX25Y25*%
%MOIN*%
G70*
G01*
G75*
%ADD10C,0.00787*%
%ADD11C,0.00700*%
%ADD12C,0.00500*%
%ADD13C,0.00984*%
%ADD14C,0.01000*%
%ADD15C,0.00600*%
%ADD16R,0.10000X0.05000*%
%ADD17R,0.05000X0.10000*%
G36*
X71936Y139266D02*
Y131366D01*
X69636D01*
Y139266D01*
X71936D01*
D02*
G37*
D10*
X26579Y46681D02*
G03*
X26579Y46681I-394J0D01*
G01*
X113602Y109350D02*
G03*
X113602Y109350I-591J0D01*
G01*
X269162Y30299D02*
Y35582D01*
X262062D02*
X269162D01*
X262062Y30299D02*
Y35582D01*
Y21802D02*
Y27248D01*
X269162Y21802D02*
Y27248D01*
X262062Y21802D02*
X269162D01*
X248574Y30299D02*
Y35582D01*
X241474D02*
X248574D01*
X241474Y30299D02*
Y35582D01*
Y21802D02*
Y27248D01*
X248574Y21802D02*
Y27248D01*
X241474Y21802D02*
X248574D01*
X141142Y53148D02*
Y68548D01*
X134642D02*
X141142D01*
X134542Y53148D02*
X141142D01*
X134542D02*
Y68548D01*
X49178Y30924D02*
X64578D01*
X49178Y24424D02*
Y30924D01*
X64578Y24324D02*
Y30924D01*
X49178Y24324D02*
X64578D01*
X27282Y41614D02*
X42682D01*
X27282Y35114D02*
Y41614D01*
X42682Y35014D02*
Y41614D01*
X27282Y35014D02*
X42682D01*
X27528Y44004D02*
X42928D01*
Y50604D01*
X27528Y44104D02*
Y50604D01*
X42928D01*
X220948Y27654D02*
X226230D01*
Y34754D01*
X220948D02*
X226230D01*
X212451D02*
X217896D01*
X212451Y27654D02*
X217896D01*
X212451D02*
Y34754D01*
X212372Y16810D02*
X217654D01*
X212372Y9710D02*
Y16810D01*
Y9710D02*
X217654D01*
X220706D02*
X226151D01*
X220706Y16810D02*
X226151D01*
Y9710D02*
Y16810D01*
X246294Y9738D02*
Y16738D01*
X232194Y9738D02*
Y16738D01*
X240802Y9738D02*
X246294D01*
X232194D02*
X237750D01*
X232194Y16738D02*
X237750D01*
X240802D02*
X246294D01*
X209272Y119280D02*
Y138446D01*
Y119280D02*
Y149279D01*
X229272Y119280D02*
Y149279D01*
X209272D02*
X229272D01*
X209272Y119280D02*
X229272D01*
X210295Y630D02*
Y5630D01*
X160295Y630D02*
X210295D01*
X160295D02*
Y5630D01*
X163629Y-12703D02*
Y630D01*
Y-12703D02*
X165295Y-14370D01*
X166962Y-12703D01*
Y630D01*
X173629Y-12703D02*
Y630D01*
Y-12703D02*
X175295Y-14370D01*
X176962Y-12703D01*
Y630D01*
X183629Y-12703D02*
Y630D01*
Y-12703D02*
X185295Y-14370D01*
X186962Y-12703D01*
Y630D01*
X193629Y-12703D02*
Y630D01*
Y-12703D02*
X195295Y-14370D01*
X196962Y-12703D01*
Y630D01*
X203629Y-12703D02*
Y630D01*
Y-12703D02*
X205295Y-14370D01*
X206962Y-12703D01*
Y630D01*
X160295Y5630D02*
X210295D01*
X40610Y-1240D02*
X60610D01*
Y3760D01*
X40610Y-1240D02*
Y3760D01*
X60610D01*
X43944Y-14573D02*
Y-1240D01*
Y-14573D02*
X45610Y-16240D01*
X47277Y-14573D01*
X47277Y-14573D02*
Y-1240D01*
X53944Y-14573D02*
Y-1240D01*
Y-14573D02*
X55610Y-16240D01*
X57277Y-14573D01*
Y-1240D01*
X125637Y4528D02*
X132737D01*
Y9973D01*
X125637Y4528D02*
Y9973D01*
Y13024D02*
Y18307D01*
X132737D01*
Y13024D02*
Y18307D01*
X148185Y4528D02*
Y10020D01*
Y13072D02*
Y18628D01*
X141185Y13072D02*
Y18628D01*
Y4528D02*
Y10020D01*
Y18628D02*
X148185D01*
X141185Y4528D02*
X148185D01*
X133986Y38116D02*
X139479D01*
X142530D02*
X148086D01*
X142530Y45116D02*
X148086D01*
X133986D02*
X139479D01*
X148086Y38116D02*
Y45116D01*
X133986Y38116D02*
Y45116D01*
X5177Y62499D02*
X15177D01*
X5177D02*
Y102499D01*
X15177Y62499D02*
Y102499D01*
X5177D02*
X15177D01*
X79339Y15945D02*
Y26969D01*
X105717Y15945D02*
Y26969D01*
X79339D02*
X105717D01*
X79339Y15945D02*
X105717D01*
X2302Y144998D02*
X32302D01*
Y124997D02*
Y144998D01*
X2302Y124997D02*
X32302D01*
X2302D02*
Y144998D01*
X267412Y109864D02*
Y169864D01*
X257412Y109864D02*
Y169864D01*
Y109864D02*
X267412D01*
X257412Y169864D02*
X267412D01*
X249864Y180890D02*
Y190890D01*
X199864Y180890D02*
X249864D01*
X199864Y190890D02*
X249864D01*
X199864Y180890D02*
Y190890D01*
X102020Y179831D02*
Y189831D01*
X182020D01*
Y179831D02*
Y189831D01*
X102020Y179831D02*
X182020D01*
D11*
X59886Y142766D02*
G03*
X59959Y127766I50J-7500D01*
G01*
X81259D02*
G03*
X81186Y142766I-50J7500D01*
G01*
X60289Y144267D02*
G03*
X60284Y126277I-303J-8995D01*
G01*
X81377Y126266D02*
G03*
X81289Y144266I-59J9000D01*
G01*
X268301Y27808D02*
Y29608D01*
X262901Y27808D02*
Y29608D01*
X247713Y27808D02*
Y29608D01*
X242313Y27808D02*
Y29608D01*
X218457Y28515D02*
X220257D01*
X218457Y33915D02*
X220257D01*
X218345Y15950D02*
X220145D01*
X218345Y10550D02*
X220145D01*
X60089Y127766D02*
X81089D01*
X60189Y142766D02*
X81189D01*
X60284Y126266D02*
X81377D01*
X60289Y144267D02*
X81289D01*
X72786Y131566D02*
Y139066D01*
Y135166D02*
X75786D01*
X68686Y131666D02*
Y139066D01*
X65586Y135166D02*
X68686D01*
X126476Y10534D02*
Y12334D01*
X131876Y10534D02*
Y12334D01*
X201251Y145487D02*
X203917D01*
X202584D01*
Y141489D01*
X205250Y145487D02*
X207915Y141489D01*
Y145487D02*
X205250Y141489D01*
X200880Y131380D02*
Y135379D01*
X202880D01*
X203546Y134713D01*
Y133380D01*
X202880Y132713D01*
X200880D01*
X202213D02*
X203546Y131380D01*
X204879Y135379D02*
X207545Y131380D01*
Y135379D02*
X204879Y131380D01*
X197552Y125146D02*
Y121147D01*
X198885Y122480D01*
X200218Y121147D01*
Y125146D01*
X201551Y121147D02*
Y123813D01*
X202884Y125146D01*
X204217Y123813D01*
Y121147D01*
Y123146D01*
X201551D01*
X205550Y125146D02*
Y121147D01*
Y122480D01*
X208216Y125146D01*
X206216Y123146D01*
X208216Y121147D01*
X27425Y119627D02*
X28758D01*
X28092D01*
Y123626D01*
X27425Y122959D01*
X8413Y120492D02*
X7747Y119826D01*
X6414D01*
X5747Y120492D01*
Y123158D01*
X6414Y123825D01*
X7747D01*
X8413Y123158D01*
Y120492D01*
X174718Y79629D02*
Y83627D01*
X176717D01*
X177383Y82961D01*
Y81628D01*
X176717Y80962D01*
X174718D01*
X176051D02*
X177383Y79629D01*
X181382Y83627D02*
X178716D01*
Y79629D01*
X181382D01*
X178716Y81628D02*
X180049D01*
X185381Y82961D02*
X184714Y83627D01*
X183382D01*
X182715Y82961D01*
Y82294D01*
X183382Y81628D01*
X184714D01*
X185381Y80962D01*
Y80295D01*
X184714Y79629D01*
X183382D01*
X182715Y80295D01*
X189380Y83627D02*
X186714D01*
Y79629D01*
X189380D01*
X186714Y81628D02*
X188047D01*
X190713Y83627D02*
X193378D01*
X192045D01*
Y79629D01*
X125908Y21382D02*
Y25381D01*
X127907D01*
X128574Y24714D01*
Y23381D01*
X127907Y22715D01*
X125908D01*
X127241D02*
X128574Y21382D01*
X129907Y22048D02*
X130573Y21382D01*
X131906D01*
X132572Y22048D01*
Y24714D01*
X131906Y25381D01*
X130573D01*
X129907Y24714D01*
Y24048D01*
X130573Y23381D01*
X132572D01*
X260935Y24501D02*
X256936D01*
Y26500D01*
X257602Y27167D01*
X258935D01*
X259602Y26500D01*
Y24501D01*
Y25834D02*
X260935Y27167D01*
Y31165D02*
Y28499D01*
X258269Y31165D01*
X257602D01*
X256936Y30499D01*
Y29166D01*
X257602Y28499D01*
X260935Y32498D02*
Y33831D01*
Y33165D01*
X256936D01*
X257602Y32498D01*
X240119Y23798D02*
X236120D01*
Y25797D01*
X236787Y26464D01*
X238120D01*
X238786Y25797D01*
Y23798D01*
Y25131D02*
X240119Y26464D01*
Y30463D02*
Y27797D01*
X237453Y30463D01*
X236787D01*
X236120Y29796D01*
Y28463D01*
X236787Y27797D01*
Y31795D02*
X236120Y32462D01*
Y33795D01*
X236787Y34461D01*
X239452D01*
X240119Y33795D01*
Y32462D01*
X239452Y31795D01*
X236787D01*
X214367Y22650D02*
Y26649D01*
X216367D01*
X217033Y25983D01*
Y24650D01*
X216367Y23983D01*
X214367D01*
X215700D02*
X217033Y22650D01*
X218366D02*
X219699D01*
X219033D01*
Y26649D01*
X218366Y25983D01*
X221698D02*
X222365Y26649D01*
X223698D01*
X224364Y25983D01*
Y25316D01*
X223698Y24650D01*
X224364Y23983D01*
Y23317D01*
X223698Y22650D01*
X222365D01*
X221698Y23317D01*
Y23983D01*
X222365Y24650D01*
X221698Y25316D01*
Y25983D01*
X222365Y24650D02*
X223698D01*
X214289Y4879D02*
Y8878D01*
X216288D01*
X216955Y8212D01*
Y6879D01*
X216288Y6212D01*
X214289D01*
X215622D02*
X216955Y4879D01*
X218287D02*
X219620D01*
X218954D01*
Y8878D01*
X218287Y8212D01*
X224286Y8878D02*
X222953Y8212D01*
X221620Y6879D01*
Y5546D01*
X222286Y4879D01*
X223619D01*
X224286Y5546D01*
Y6212D01*
X223619Y6879D01*
X221620D01*
X176585Y49752D02*
X173920D01*
Y47752D01*
X175253D01*
X173920D01*
Y45753D01*
X177918Y49752D02*
Y45753D01*
X180584D01*
X181917D02*
Y48419D01*
X183250Y49752D01*
X184583Y48419D01*
Y45753D01*
Y47752D01*
X181917D01*
X188582Y49085D02*
X187915Y49752D01*
X186582D01*
X185916Y49085D01*
Y48419D01*
X186582Y47752D01*
X187915D01*
X188582Y47086D01*
Y46420D01*
X187915Y45753D01*
X186582D01*
X185916Y46420D01*
X189915Y49752D02*
Y45753D01*
Y47752D01*
X192580D01*
Y49752D01*
Y45753D01*
X236560Y8505D02*
Y4506D01*
X238560D01*
X239226Y5173D01*
Y7839D01*
X238560Y8505D01*
X236560D01*
X242558Y4506D02*
Y8505D01*
X240559Y6506D01*
X243225D01*
X8482Y24801D02*
Y21469D01*
X9149Y20803D01*
X10482D01*
X11148Y21469D01*
Y24801D01*
X15147Y24135D02*
X14480Y24801D01*
X13148D01*
X12481Y24135D01*
Y23469D01*
X13148Y22802D01*
X14480D01*
X15147Y22136D01*
Y21469D01*
X14480Y20803D01*
X13148D01*
X12481Y21469D01*
X16480Y24801D02*
Y20803D01*
X18479D01*
X19146Y21469D01*
Y22136D01*
X18479Y22802D01*
X16480D01*
X18479D01*
X19146Y23469D01*
Y24135D01*
X18479Y24801D01*
X16480D01*
X50248Y17401D02*
X47583D01*
Y15402D01*
X48915D01*
X47583D01*
Y13403D01*
X51581D02*
X52914D01*
X52248D01*
Y17401D01*
X51581Y16735D01*
X141508Y25681D02*
Y21683D01*
X143507D01*
X144174Y22349D01*
Y25015D01*
X143507Y25681D01*
X141508D01*
X145507Y25015D02*
X146173Y25681D01*
X147506D01*
X148172Y25015D01*
Y24349D01*
X147506Y23682D01*
X146839D01*
X147506D01*
X148172Y23016D01*
Y22349D01*
X147506Y21683D01*
X146173D01*
X145507Y22349D01*
X134608Y195195D02*
X133942Y195861D01*
X132609D01*
X131942Y195195D01*
Y192529D01*
X132609Y191863D01*
X133942D01*
X134608Y192529D01*
X138607Y195195D02*
X137941Y195861D01*
X136608D01*
X135941Y195195D01*
Y192529D01*
X136608Y191863D01*
X137941D01*
X138607Y192529D01*
X142606Y195195D02*
X141939Y195861D01*
X140606D01*
X139940Y195195D01*
Y194528D01*
X140606Y193862D01*
X141939D01*
X142606Y193195D01*
Y192529D01*
X141939Y191863D01*
X140606D01*
X139940Y192529D01*
X143939Y195195D02*
X144605Y195861D01*
X145938D01*
X146604Y195195D01*
Y194528D01*
X145938Y193862D01*
X146604Y193195D01*
Y192529D01*
X145938Y191863D01*
X144605D01*
X143939Y192529D01*
Y193195D01*
X144605Y193862D01*
X143939Y194528D01*
Y195195D01*
X144605Y193862D02*
X145938D01*
X147937Y191863D02*
X149270D01*
X148604D01*
Y195861D01*
X147937Y195195D01*
X151270Y191863D02*
X152603D01*
X151936D01*
Y195861D01*
X151270Y195195D01*
X224278Y77599D02*
X221612Y77612D01*
X221592Y73613D01*
X224258Y73600D01*
X221602Y75612D02*
X222935Y75606D01*
X228273Y76912D02*
X227610Y77582D01*
X226277Y77589D01*
X225607Y76925D01*
X225604Y76259D01*
X226267Y75589D01*
X227600Y75583D01*
X228263Y74913D01*
X228260Y74247D01*
X227590Y73584D01*
X226257Y73590D01*
X225594Y74260D01*
X229590Y73574D02*
X229609Y77573D01*
X231609Y77563D01*
X232272Y76893D01*
X232265Y75560D01*
X231595Y74897D01*
X229596Y74907D01*
X233605Y76886D02*
X234274Y77550D01*
X235607Y77543D01*
X236270Y76873D01*
X236267Y76207D01*
X235597Y75544D01*
X236261Y74874D01*
X236257Y74208D01*
X235588Y73545D01*
X234255Y73551D01*
X233592Y74221D01*
X233595Y74887D01*
X234264Y75550D01*
X233601Y76220D01*
X233605Y76886D01*
X234264Y75550D02*
X235597Y75544D01*
X240253Y73522D02*
X237587Y73535D01*
X240266Y76187D01*
X240269Y76854D01*
X239606Y77524D01*
X238273Y77530D01*
X237603Y76867D01*
X244271Y77501D02*
X242935Y76841D01*
X241595Y75515D01*
X241589Y74182D01*
X242252Y73512D01*
X243585Y73506D01*
X244255Y74169D01*
X244258Y74835D01*
X243595Y75505D01*
X241595Y75515D01*
X248270Y77481D02*
X246933Y76822D01*
X245594Y75495D01*
X245587Y74162D01*
X246251Y73492D01*
X247584Y73486D01*
X248253Y74149D01*
X248257Y74816D01*
X247593Y75485D01*
X245594Y75495D01*
X253582Y73457D02*
X254914Y73450D01*
X254248Y73453D01*
X254268Y77452D01*
X253598Y76789D01*
X259580Y73427D02*
X256914Y73440D01*
X259593Y76093D01*
X259596Y76760D01*
X258933Y77429D01*
X257600Y77436D01*
X256930Y76773D01*
X260922Y75420D02*
X263588Y75407D01*
X267596Y77387D02*
X264931Y77400D01*
X264911Y73401D01*
X267577Y73388D01*
X264921Y75401D02*
X266254Y75394D01*
X69591Y21022D02*
X68925Y20356D01*
Y19023D01*
X69591Y18357D01*
X72257D01*
X72924Y19023D01*
Y20356D01*
X72257Y21022D01*
X72924Y22355D02*
Y23688D01*
Y23022D01*
X68925D01*
X69591Y22355D01*
X72924Y27687D02*
X68925D01*
X70924Y25688D01*
Y28353D01*
X115064Y20496D02*
X114398Y19829D01*
Y18496D01*
X115064Y17830D01*
X117730D01*
X118396Y18496D01*
Y19829D01*
X117730Y20496D01*
X118396Y21829D02*
Y23162D01*
Y22495D01*
X114398D01*
X115064Y21829D01*
X114398Y27827D02*
Y25161D01*
X116397D01*
X115731Y26494D01*
Y27160D01*
X116397Y27827D01*
X117730D01*
X118396Y27160D01*
Y25827D01*
X117730Y25161D01*
X137665Y36400D02*
Y32401D01*
X139664D01*
X140331Y33068D01*
Y35733D01*
X139664Y36400D01*
X137665D01*
X141664Y32401D02*
X142996D01*
X142330D01*
Y36400D01*
X141664Y35733D01*
X33429Y21445D02*
Y17446D01*
X35428D01*
X36095Y18113D01*
Y20779D01*
X35428Y21445D01*
X33429D01*
X40093Y17446D02*
X37428D01*
X40093Y20112D01*
Y20779D01*
X39427Y21445D01*
X38094D01*
X37428Y20779D01*
X9401Y150540D02*
Y146541D01*
X11400D01*
X12066Y147207D01*
Y147874D01*
X11400Y148540D01*
X9401D01*
X11400D01*
X12066Y149207D01*
Y149873D01*
X11400Y150540D01*
X9401D01*
X15399D02*
X14066D01*
X13399Y149873D01*
Y147207D01*
X14066Y146541D01*
X15399D01*
X16065Y147207D01*
Y149873D01*
X15399Y150540D01*
X19398D02*
X18065D01*
X17398Y149873D01*
Y147207D01*
X18065Y146541D01*
X19398D01*
X20064Y147207D01*
Y149873D01*
X19398Y150540D01*
X21397D02*
X24063D01*
X22730D01*
Y146541D01*
X25396D02*
X26728D01*
X26062D01*
Y150540D01*
X25396Y149873D01*
X273625Y146198D02*
X269626D01*
Y144198D01*
X270293Y143532D01*
X272959D01*
X273625Y144198D01*
Y146198D01*
Y142199D02*
X270293D01*
X269626Y141533D01*
Y140200D01*
X270293Y139533D01*
X273625D01*
X272959Y135534D02*
X273625Y136201D01*
Y137534D01*
X272959Y138200D01*
X272292D01*
X271626Y137534D01*
Y136201D01*
X270959Y135534D01*
X270293D01*
X269626Y136201D01*
Y137534D01*
X270293Y138200D01*
X273625Y134202D02*
Y131536D01*
Y132869D01*
X269626D01*
X50077Y195195D02*
X49410Y195861D01*
X48077D01*
X47411Y195195D01*
Y194528D01*
X48077Y193862D01*
X49410D01*
X50077Y193195D01*
Y192529D01*
X49410Y191863D01*
X48077D01*
X47411Y192529D01*
X51410Y191863D02*
X52743D01*
X52076D01*
Y194528D01*
X51410D01*
X54742Y191863D02*
X56075D01*
X55408D01*
Y195861D01*
X54742Y195195D01*
X142082Y56631D02*
Y60630D01*
X144081D01*
X144747Y59963D01*
Y58630D01*
X144081Y57964D01*
X142082D01*
X143414D02*
X144747Y56631D01*
X146080D02*
X147413D01*
X146747D01*
Y60630D01*
X146080Y59963D01*
X54254Y33091D02*
Y37089D01*
X56253D01*
X56920Y36423D01*
Y35090D01*
X56253Y34424D01*
X54254D01*
X55587D02*
X56920Y33091D01*
X60919Y37089D02*
X58253D01*
Y35090D01*
X59586Y35756D01*
X60252D01*
X60919Y35090D01*
Y33757D01*
X60252Y33091D01*
X58919D01*
X58253Y33757D01*
X32230Y52333D02*
Y56332D01*
X34230D01*
X34896Y55666D01*
Y54333D01*
X34230Y53666D01*
X32230D01*
X33563D02*
X34896Y52333D01*
X38895Y56332D02*
X37562Y55666D01*
X36229Y54333D01*
Y53000D01*
X36895Y52333D01*
X38228D01*
X38895Y53000D01*
Y53666D01*
X38228Y54333D01*
X36229D01*
X33078Y29567D02*
Y33566D01*
X35077D01*
X35743Y32899D01*
Y31567D01*
X35077Y30900D01*
X33078D01*
X34411D02*
X35743Y29567D01*
X37076Y33566D02*
X39742D01*
Y32899D01*
X37076Y30234D01*
Y29567D01*
X54454Y74123D02*
X51789D01*
Y76122D01*
X52455Y76789D01*
X54454D01*
Y78122D02*
X50456D01*
Y80121D01*
X51122Y80787D01*
X52455D01*
X53121Y80121D01*
Y78122D01*
Y79454D02*
X54454Y80787D01*
X51122Y84786D02*
X50456Y84120D01*
Y82787D01*
X51122Y82120D01*
X51789D01*
X52455Y82787D01*
Y84120D01*
X53121Y84786D01*
X53788D01*
X54454Y84120D01*
Y82787D01*
X53788Y82120D01*
X50456Y86119D02*
Y88785D01*
Y87452D01*
X54454D01*
X123242Y75594D02*
X122576Y76260D01*
X121243D01*
X120577Y75594D01*
Y74927D01*
X121243Y74261D01*
X122576D01*
X123242Y73594D01*
Y72928D01*
X122576Y72262D01*
X121243D01*
X120577Y72928D01*
X124575Y76260D02*
X127241D01*
X125908D01*
Y72262D01*
X128574D02*
Y76260D01*
X129907Y74927D01*
X131240Y76260D01*
Y72262D01*
X132573Y75594D02*
X133239Y76260D01*
X134572D01*
X135239Y75594D01*
Y74927D01*
X134572Y74261D01*
X133906D01*
X134572D01*
X135239Y73594D01*
Y72928D01*
X134572Y72262D01*
X133239D01*
X132573Y72928D01*
X139237Y72262D02*
X136571D01*
X139237Y74927D01*
Y75594D01*
X138571Y76260D01*
X137238D01*
X136571Y75594D01*
X143236Y76260D02*
X140570D01*
Y74261D01*
X141903D01*
X140570D01*
Y72262D01*
X144569D02*
X145902D01*
X145235D01*
Y76260D01*
X144569Y75594D01*
X147901D02*
X148568Y76260D01*
X149900D01*
X150567Y75594D01*
Y72928D01*
X149900Y72262D01*
X148568D01*
X147901Y72928D01*
Y75594D01*
X151900D02*
X152566Y76260D01*
X153899D01*
X154566Y75594D01*
Y74927D01*
X153899Y74261D01*
X153233D01*
X153899D01*
X154566Y73594D01*
Y72928D01*
X153899Y72262D01*
X152566D01*
X151900Y72928D01*
X89192Y43037D02*
X89257Y39705D01*
X89937Y39052D01*
X91269Y39078D01*
X91923Y39758D01*
X91857Y43089D01*
X95934Y39170D02*
X93268Y39117D01*
X95881Y41835D01*
X95868Y42501D01*
X95189Y43154D01*
X93857Y43128D01*
X93203Y42449D01*
X66435Y149800D02*
X69100Y145801D01*
Y149800D02*
X66435Y145801D01*
X73099D02*
X70433D01*
X73099Y148467D01*
Y149133D01*
X72433Y149800D01*
X71100D01*
X70433Y149133D01*
X218249Y195097D02*
X217593Y195753D01*
X216281D01*
X215625Y195097D01*
Y192473D01*
X216281Y191817D01*
X217593D01*
X218249Y192473D01*
Y193785D01*
X216937D01*
X219561Y191817D02*
Y195753D01*
X221528D01*
X222184Y195097D01*
Y193785D01*
X221528Y193129D01*
X219561D01*
X223496Y195753D02*
X224808D01*
X224152D01*
Y191817D01*
X223496D01*
X224808D01*
X228744Y195753D02*
X227432D01*
X226776Y195097D01*
Y192473D01*
X227432Y191817D01*
X228744D01*
X229400Y192473D01*
Y195097D01*
X228744Y195753D01*
D12*
X275984Y38681D02*
G03*
X275984Y38681I-984J0D01*
G01*
X2170Y26800D02*
Y33709D01*
Y49418D02*
Y56327D01*
X12800D01*
X2170Y26800D02*
X12800D01*
X238461Y11688D02*
X240061Y13288D01*
X238411Y11738D02*
X238461Y11688D01*
X238411Y11738D02*
Y14939D01*
X240111Y11638D02*
Y15039D01*
X238461Y14888D02*
X240061Y13288D01*
X144735Y10761D02*
X146335Y12361D01*
X143085Y10711D02*
X146485D01*
X143185Y12411D02*
X146385D01*
X143135Y12361D02*
X143185Y12411D01*
X143135Y12361D02*
X144735Y10761D01*
X274468Y51476D02*
Y98721D01*
X215413D02*
X274468D01*
X215413Y51476D02*
Y98721D01*
Y51476D02*
X274468D01*
X275492Y43602D02*
X305020D01*
Y106595D01*
X275492D02*
X305020D01*
X210531Y43602D02*
X212500D01*
X210531D02*
Y51476D01*
Y106595D02*
X212500D01*
X210531Y98721D02*
Y106595D01*
X140220Y41566D02*
X141820Y39966D01*
X140170Y39816D02*
Y43216D01*
X141870Y39916D02*
Y43116D01*
X141820Y43166D02*
X141870Y43116D01*
X140220Y41566D02*
X141820Y43166D01*
X122461Y111909D02*
X123996D01*
X122461Y110374D02*
Y111909D01*
Y83563D02*
Y85098D01*
Y83563D02*
X123996D01*
X149272D02*
X150807D01*
Y85098D01*
Y110374D02*
Y111909D01*
X149272D02*
X150807D01*
D13*
X106209Y10039D02*
G03*
X106209Y10039I-492J0D01*
G01*
D14*
X171631Y39384D02*
Y43884D01*
Y29284D02*
Y33784D01*
X187731Y34084D02*
Y39084D01*
X177731D02*
X187731D01*
X177731Y34084D02*
Y39084D01*
Y34084D02*
X187731D01*
X171631Y29284D02*
X193831D01*
X171631Y43884D02*
X193831D01*
Y39384D02*
Y43884D01*
Y29284D02*
Y33784D01*
X25469Y2953D02*
Y25053D01*
Y2953D02*
X26569Y1853D01*
X31169D01*
X32269Y2953D02*
Y25053D01*
X31169Y1853D02*
X32269Y2953D01*
X25469Y25053D02*
X32269D01*
X171940Y73998D02*
Y78498D01*
Y63898D02*
Y68398D01*
X188040Y68698D02*
Y73698D01*
X178040D02*
X188040D01*
X178040Y68698D02*
Y73698D01*
Y68698D02*
X188040D01*
X171940Y63898D02*
X194140D01*
X171940Y78498D02*
X194140D01*
Y73998D02*
Y78498D01*
Y63898D02*
Y68398D01*
X74695Y178903D02*
Y190903D01*
X32695Y178903D02*
X74695D01*
X32695Y190903D02*
X74695D01*
X32695Y178903D02*
Y190903D01*
X56480Y70888D02*
X60979D01*
X66580D02*
X71079D01*
Y93088D01*
X56480Y70888D02*
Y93088D01*
X61279Y76988D02*
Y86988D01*
X66280D01*
Y76988D02*
Y86988D01*
X61279Y76988D02*
X66280D01*
X56480Y93088D02*
X60979D01*
X66580D02*
X71079D01*
D15*
X203373Y14104D02*
Y15104D01*
Y14604D01*
X206372D01*
Y14104D01*
Y15104D01*
X203373Y18103D02*
Y17103D01*
X203873Y16603D01*
X205873D01*
X206372Y17103D01*
Y18103D01*
X205873Y18603D01*
X203873D01*
X203373Y18103D01*
X203873Y19602D02*
X203373Y20102D01*
Y21102D01*
X203873Y21602D01*
X205873D01*
X206372Y21102D01*
Y20102D01*
X205873Y19602D01*
X203873D01*
X193827Y13863D02*
Y15862D01*
Y14862D01*
X196826D01*
X193827Y16862D02*
X196826Y18861D01*
X193827D02*
X196826Y16862D01*
X193827Y19861D02*
X196826D01*
Y21360D01*
X196326Y21860D01*
X194326D01*
X193827Y21360D01*
Y19861D01*
X194326Y22860D02*
X193827Y23359D01*
Y24359D01*
X194326Y24859D01*
X196326D01*
X196826Y24359D01*
Y23359D01*
X196326Y22860D01*
X194326D01*
X186312Y13984D02*
X183313D01*
Y15483D01*
X183813Y15983D01*
X184813D01*
X185312Y15483D01*
Y13984D01*
Y14983D02*
X186312Y15983D01*
X183313Y16983D02*
X186312Y18982D01*
X183313D02*
X186312Y16983D01*
X183313Y19982D02*
X186312D01*
Y21481D01*
X185812Y21981D01*
X183813D01*
X183313Y21481D01*
Y19982D01*
X183813Y22980D02*
X183313Y23480D01*
Y24480D01*
X183813Y24980D01*
X185812D01*
X186312Y24480D01*
Y23480D01*
X185812Y22980D01*
X183813D01*
X176887Y13984D02*
X173888D01*
Y15483D01*
X174387Y15983D01*
X175387D01*
X175887Y15483D01*
Y13984D01*
Y14983D02*
X176887Y15983D01*
X173888Y18982D02*
Y16983D01*
X176887D01*
Y18982D01*
X175387Y16983D02*
Y17982D01*
X174387Y21981D02*
X173888Y21481D01*
Y20481D01*
X174387Y19982D01*
X174887D01*
X175387Y20481D01*
Y21481D01*
X175887Y21981D01*
X176387D01*
X176887Y21481D01*
Y20481D01*
X176387Y19982D01*
X173888Y24980D02*
Y22980D01*
X176887D01*
Y24980D01*
X175387Y22980D02*
Y23980D01*
X173888Y25980D02*
Y27979D01*
Y26979D01*
X176887D01*
X164237Y16104D02*
X163737Y15604D01*
Y14604D01*
X164237Y14104D01*
X166236D01*
X166736Y14604D01*
Y15604D01*
X166236Y16104D01*
X165236D01*
Y15104D01*
X166736Y17103D02*
X163737D01*
X166736Y19103D01*
X163737D01*
Y20102D02*
X166736D01*
Y21602D01*
X166236Y22102D01*
X164237D01*
X163737Y21602D01*
Y20102D01*
X18078Y99081D02*
X17578Y99581D01*
X16579D01*
X16079Y99081D01*
Y97082D01*
X16579Y96582D01*
X17578D01*
X18078Y97082D01*
Y98082D01*
X17078D01*
X19078Y96582D02*
Y99581D01*
X21077Y96582D01*
Y99581D01*
X22077D02*
Y96582D01*
X23576D01*
X24076Y97082D01*
Y99081D01*
X23576Y99581D01*
X22077D01*
X206759Y172151D02*
X203760D01*
Y173650D01*
X204259Y174150D01*
X205259D01*
X205759Y173650D01*
Y172151D01*
X206759Y175150D02*
X204759D01*
X203760Y176149D01*
X204759Y177149D01*
X206759D01*
X205259D01*
Y175150D01*
X204259Y178149D02*
X203760Y178649D01*
Y179648D01*
X204259Y180148D01*
X204759D01*
X205259Y179648D01*
X205759Y180148D01*
X206259D01*
X206759Y179648D01*
Y178649D01*
X206259Y178149D01*
X205759D01*
X205259Y178649D01*
X204759Y178149D01*
X204259D01*
X205259Y178649D02*
Y179648D01*
X243190Y115829D02*
Y113829D01*
X244189Y112829D01*
X245189Y113829D01*
Y115829D01*
X246189Y114329D02*
X248188D01*
X249188Y115829D02*
Y112829D01*
X251187D01*
X254186Y115829D02*
X252187D01*
Y112829D01*
X254186D01*
X252187Y114329D02*
X253186D01*
X255186Y115829D02*
Y112829D01*
X256685D01*
X257185Y113329D01*
Y115329D01*
X256685Y115829D01*
X255186D01*
X248510Y166445D02*
Y164446D01*
X249509Y163446D01*
X250509Y164446D01*
Y166445D01*
X253508Y165945D02*
X253008Y166445D01*
X252008D01*
X251508Y165945D01*
Y163946D01*
X252008Y163446D01*
X253008D01*
X253508Y163946D01*
X256507Y165945D02*
X256007Y166445D01*
X255007D01*
X254507Y165945D01*
Y163946D01*
X255007Y163446D01*
X256007D01*
X256507Y163946D01*
X251250Y156128D02*
Y154129D01*
X252249Y153129D01*
X253249Y154129D01*
Y156128D01*
X254249Y155628D02*
X254749Y156128D01*
X255748D01*
X256248Y155628D01*
Y153629D01*
X255748Y153129D01*
X254749D01*
X254249Y153629D01*
Y155628D01*
X245028Y145150D02*
X244528Y145650D01*
X243528D01*
X243028Y145150D01*
Y144650D01*
X243528Y144151D01*
X244528D01*
X245028Y143651D01*
Y143151D01*
X244528Y142651D01*
X243528D01*
X243028Y143151D01*
X246027Y144151D02*
X248027D01*
X251026Y145150D02*
X250526Y145650D01*
X249526D01*
X249026Y145150D01*
Y143151D01*
X249526Y142651D01*
X250526D01*
X251026Y143151D01*
Y144151D01*
X250026D01*
X252025Y142651D02*
Y145650D01*
X254025Y142651D01*
Y145650D01*
X255025D02*
Y142651D01*
X256524D01*
X257024Y143151D01*
Y145150D01*
X256524Y145650D01*
X255025D01*
X248992Y136140D02*
Y133141D01*
X250992D01*
X253991Y136140D02*
X251991D01*
Y133141D01*
X253991D01*
X251991Y134641D02*
X252991D01*
X254990Y136140D02*
Y133141D01*
X256490D01*
X256990Y133641D01*
Y135641D01*
X256490Y136140D01*
X254990D01*
X242867Y125661D02*
Y122662D01*
X244867D01*
X245866Y124162D02*
X247866D01*
X250865Y125161D02*
X250365Y125661D01*
X249365D01*
X248865Y125161D01*
Y123162D01*
X249365Y122662D01*
X250365D01*
X250865Y123162D01*
Y124162D01*
X249865D01*
X251864Y122662D02*
Y125661D01*
X253864Y122662D01*
Y125661D01*
X254863D02*
Y122662D01*
X256363D01*
X256863Y123162D01*
Y125161D01*
X256363Y125661D01*
X254863D01*
X15844Y69542D02*
Y67542D01*
X16844Y66543D01*
X17843Y67542D01*
Y69542D01*
X20843Y69042D02*
X20343Y69542D01*
X19343D01*
X18843Y69042D01*
Y67042D01*
X19343Y66543D01*
X20343D01*
X20843Y67042D01*
X23842Y69042D02*
X23342Y69542D01*
X22342D01*
X21842Y69042D01*
Y67042D01*
X22342Y66543D01*
X23342D01*
X23842Y67042D01*
X17765Y78742D02*
X17265Y79242D01*
X16266D01*
X15766Y78742D01*
Y78242D01*
X16266Y77742D01*
X17265D01*
X17765Y77243D01*
Y76743D01*
X17265Y76243D01*
X16266D01*
X15766Y76743D01*
X18765Y79242D02*
Y76243D01*
X19764Y77243D01*
X20764Y76243D01*
Y79242D01*
X21764D02*
Y76243D01*
X23263D01*
X23763Y76743D01*
Y78742D01*
X23263Y79242D01*
X21764D01*
X24763D02*
X25763D01*
X25263D01*
Y76243D01*
X24763D01*
X25763D01*
X28762Y79242D02*
X27762D01*
X27262Y78742D01*
Y76743D01*
X27762Y76243D01*
X28762D01*
X29261Y76743D01*
Y78742D01*
X28762Y79242D01*
X17687Y89068D02*
X17187Y89568D01*
X16187D01*
X15687Y89068D01*
Y88568D01*
X16187Y88068D01*
X17187D01*
X17687Y87569D01*
Y87069D01*
X17187Y86569D01*
X16187D01*
X15687Y87069D01*
X18686Y89568D02*
Y86569D01*
X19686Y87569D01*
X20686Y86569D01*
Y89568D01*
X23685Y89068D02*
X23185Y89568D01*
X22185D01*
X21686Y89068D01*
Y87069D01*
X22185Y86569D01*
X23185D01*
X23685Y87069D01*
X24685Y89568D02*
Y86569D01*
X26684D01*
X27683Y89568D02*
Y86569D01*
Y87569D01*
X29683Y89568D01*
X28183Y88068D01*
X29683Y86569D01*
X35657Y171958D02*
X35157Y171458D01*
Y170458D01*
X35657Y169959D01*
X36157D01*
X36656Y170458D01*
Y171458D01*
X37156Y171958D01*
X37656D01*
X38156Y171458D01*
Y170458D01*
X37656Y169959D01*
X35657Y174957D02*
X35157Y174457D01*
Y173458D01*
X35657Y172958D01*
X37656D01*
X38156Y173458D01*
Y174457D01*
X37656Y174957D01*
X35157Y175957D02*
X38156D01*
Y177956D01*
X46270Y171636D02*
X45770Y171136D01*
Y170136D01*
X46270Y169636D01*
X46769D01*
X47269Y170136D01*
Y171136D01*
X47769Y171636D01*
X48269D01*
X48769Y171136D01*
Y170136D01*
X48269Y169636D01*
X45770Y172635D02*
X48769D01*
Y174135D01*
X48269Y174635D01*
X46270D01*
X45770Y174135D01*
Y172635D01*
X48769Y175634D02*
X46769D01*
X45770Y176634D01*
X46769Y177634D01*
X48769D01*
X47269D01*
Y175634D01*
X57095Y170032D02*
X56595Y170532D01*
Y171532D01*
X57095Y172032D01*
X57595D01*
X58095Y171532D01*
Y171032D01*
Y171532D01*
X58595Y172032D01*
X59095D01*
X59595Y171532D01*
Y170532D01*
X59095Y170032D01*
X59595Y173031D02*
X59095D01*
Y173531D01*
X59595D01*
Y173031D01*
X57095Y175531D02*
X56595Y176030D01*
Y177030D01*
X57095Y177530D01*
X57595D01*
X58095Y177030D01*
Y176530D01*
Y177030D01*
X58595Y177530D01*
X59095D01*
X59595Y177030D01*
Y176030D01*
X59095Y175531D01*
X68713Y172032D02*
X68213Y171532D01*
Y170532D01*
X68713Y170032D01*
X70712D01*
X71212Y170532D01*
Y171532D01*
X70712Y172032D01*
X69713D01*
Y171032D01*
X71212Y173031D02*
X68213D01*
X71212Y175031D01*
X68213D01*
Y176030D02*
X71212D01*
Y177530D01*
X70712Y178030D01*
X68713D01*
X68213Y177530D01*
Y176030D01*
X107723Y170700D02*
X105724D01*
X104724Y171700D01*
X105724Y172700D01*
X107723D01*
X106224D01*
Y170700D01*
X104724Y173699D02*
X107723D01*
Y175199D01*
X107223Y175699D01*
X105224D01*
X104724Y175199D01*
Y173699D01*
Y176699D02*
X107723D01*
Y178198D01*
X107223Y178698D01*
X105224D01*
X104724Y178198D01*
Y176699D01*
X118374Y170845D02*
X115375D01*
Y172345D01*
X115875Y172845D01*
X116875D01*
X117375Y172345D01*
Y170845D01*
Y171845D02*
X118374Y172845D01*
X115875Y175844D02*
X115375Y175344D01*
Y174344D01*
X115875Y173844D01*
X116375D01*
X116875Y174344D01*
Y175344D01*
X117375Y175844D01*
X117875D01*
X118374Y175344D01*
Y174344D01*
X117875Y173844D01*
X115375Y176843D02*
Y178843D01*
Y177843D01*
X118374D01*
X127033Y171276D02*
Y172276D01*
Y171776D01*
X130032D01*
Y171276D01*
Y172276D01*
Y173775D02*
X127033D01*
X130032Y175775D01*
X127033D01*
Y176774D02*
Y178774D01*
Y177774D01*
X130032D01*
X137540Y170700D02*
X140539D01*
X139539Y171700D01*
X140539Y172700D01*
X137540D01*
X140539Y173699D02*
X138539D01*
X137540Y174699D01*
X138539Y175699D01*
X140539D01*
X139039D01*
Y173699D01*
X137540Y176699D02*
X140539D01*
X139539D01*
X137540Y178698D01*
X139039Y177198D01*
X140539Y178698D01*
X148115Y172988D02*
X147615Y172488D01*
Y171488D01*
X148115Y170989D01*
X148614D01*
X149114Y171488D01*
Y172488D01*
X149614Y172988D01*
X150114D01*
X150614Y172488D01*
Y171488D01*
X150114Y170989D01*
X147615Y173988D02*
X150614D01*
Y175487D01*
X150114Y175987D01*
X148115D01*
X147615Y175487D01*
Y173988D01*
X150614Y176987D02*
X148614D01*
X147615Y177986D01*
X148614Y178986D01*
X150614D01*
X149114D01*
Y176987D01*
X158046Y173132D02*
X157546Y172632D01*
Y171632D01*
X158046Y171132D01*
X158545D01*
X159045Y171632D01*
Y172632D01*
X159545Y173132D01*
X160045D01*
X160545Y172632D01*
Y171632D01*
X160045Y171132D01*
X158046Y176131D02*
X157546Y175631D01*
Y174631D01*
X158046Y174131D01*
X160045D01*
X160545Y174631D01*
Y175631D01*
X160045Y176131D01*
X157546Y177130D02*
X160545D01*
Y179130D01*
X166825Y172987D02*
X166325Y172488D01*
Y171488D01*
X166825Y170988D01*
X168825D01*
X169324Y171488D01*
Y172488D01*
X168825Y172987D01*
X167825D01*
Y171988D01*
X169324Y173987D02*
X166325D01*
X169324Y175987D01*
X166325D01*
Y176986D02*
X169324D01*
Y178486D01*
X168825Y178986D01*
X166825D01*
X166325Y178486D01*
Y176986D01*
X175749Y171132D02*
X175249Y171632D01*
Y172632D01*
X175749Y173132D01*
X176249D01*
X176749Y172632D01*
Y172132D01*
Y172632D01*
X177248Y173132D01*
X177748D01*
X178248Y172632D01*
Y171632D01*
X177748Y171132D01*
X178248Y174131D02*
X177748D01*
Y174631D01*
X178248D01*
Y174131D01*
X175749Y176630D02*
X175249Y177130D01*
Y178130D01*
X175749Y178630D01*
X176249D01*
X176749Y178130D01*
Y177630D01*
Y178130D01*
X177248Y178630D01*
X177748D01*
X178248Y178130D01*
Y177130D01*
X177748Y176630D01*
X216592Y169733D02*
X213593D01*
Y171232D01*
X214092Y171732D01*
X215092D01*
X215592Y171232D01*
Y169733D01*
X213593Y172732D02*
X216592D01*
Y174231D01*
X216092Y174731D01*
X215592D01*
X215092Y174231D01*
Y172732D01*
Y174231D01*
X214592Y174731D01*
X214092D01*
X213593Y174231D01*
Y172732D01*
X216592Y175731D02*
Y176730D01*
Y176231D01*
X213593D01*
X214092Y175731D01*
X213593Y180229D02*
Y178230D01*
X215092D01*
X214592Y179230D01*
Y179729D01*
X215092Y180229D01*
X216092D01*
X216592Y179729D01*
Y178730D01*
X216092Y178230D01*
X226103Y169894D02*
X223104D01*
Y171393D01*
X223604Y171893D01*
X224603D01*
X225103Y171393D01*
Y169894D01*
X223104Y172893D02*
X226103D01*
Y174392D01*
X225603Y174892D01*
X225103D01*
X224603Y174392D01*
Y172893D01*
Y174392D01*
X224103Y174892D01*
X223604D01*
X223104Y174392D01*
Y172893D01*
X226103Y175892D02*
Y176891D01*
Y176392D01*
X223104D01*
X223604Y175892D01*
X226103Y179891D02*
X223104D01*
X224603Y178391D01*
Y180390D01*
X237064Y169733D02*
X234065D01*
Y171232D01*
X234565Y171732D01*
X235565D01*
X236065Y171232D01*
Y169733D01*
X234065Y172732D02*
X237064D01*
Y174231D01*
X236564Y174731D01*
X236065D01*
X235565Y174231D01*
Y172732D01*
Y174231D01*
X235065Y174731D01*
X234565D01*
X234065Y174231D01*
Y172732D01*
X237064Y175731D02*
Y176730D01*
Y176231D01*
X234065D01*
X234565Y175731D01*
Y178230D02*
X234065Y178730D01*
Y179729D01*
X234565Y180229D01*
X235065D01*
X235565Y179729D01*
Y179230D01*
Y179729D01*
X236065Y180229D01*
X236564D01*
X237064Y179729D01*
Y178730D01*
X236564Y178230D01*
X246898Y169894D02*
X243899D01*
Y171394D01*
X244398Y171893D01*
X245398D01*
X245898Y171394D01*
Y169894D01*
X243899Y172893D02*
X246898D01*
Y174393D01*
X246398Y174892D01*
X245898D01*
X245398Y174393D01*
Y172893D01*
Y174393D01*
X244898Y174892D01*
X244398D01*
X243899Y174393D01*
Y172893D01*
X246898Y175892D02*
Y176892D01*
Y176392D01*
X243899D01*
X244398Y175892D01*
X246898Y180391D02*
Y178391D01*
X244898Y180391D01*
X244398D01*
X243899Y179891D01*
Y178891D01*
X244398Y178391D01*
D16*
X182731Y36584D02*
D03*
X183040Y71198D02*
D03*
D17*
X63779Y81988D02*
D03*
M02*
