G04*
G04 #@! TF.GenerationSoftware,Altium Limited,Altium Designer,18.1.6 (161)*
G04*
G04 Layer_Color=8421504*
%FSLAX25Y25*%
%MOIN*%
G70*
G01*
G75*
%ADD18R,0.05512X0.04724*%
%ADD19R,0.05000X0.03937*%
%ADD20R,0.03937X0.05000*%
%ADD21R,0.04724X0.05512*%
%ADD22R,0.09843X0.05610*%
%ADD23R,0.06890X0.01575*%
%ADD24R,0.06299X0.03150*%
%ADD25R,0.04724X0.05906*%
%ADD26R,0.04724X0.03150*%
%ADD27R,0.04724X0.07874*%
%ADD28R,0.06693X0.04331*%
%ADD29R,0.05512X0.04331*%
%ADD30R,0.12992X0.09449*%
%ADD31R,0.03937X0.09449*%
G04:AMPARAMS|DCode=32|XSize=11.02mil|YSize=61.42mil|CornerRadius=2.76mil|HoleSize=0mil|Usage=FLASHONLY|Rotation=90.000|XOffset=0mil|YOffset=0mil|HoleType=Round|Shape=RoundedRectangle|*
%AMROUNDEDRECTD32*
21,1,0.01102,0.05591,0,0,90.0*
21,1,0.00551,0.06142,0,0,90.0*
1,1,0.00551,0.02795,0.00276*
1,1,0.00551,0.02795,-0.00276*
1,1,0.00551,-0.02795,-0.00276*
1,1,0.00551,-0.02795,0.00276*
%
%ADD32ROUNDEDRECTD32*%
G04:AMPARAMS|DCode=33|XSize=11.02mil|YSize=61.42mil|CornerRadius=2.76mil|HoleSize=0mil|Usage=FLASHONLY|Rotation=0.000|XOffset=0mil|YOffset=0mil|HoleType=Round|Shape=RoundedRectangle|*
%AMROUNDEDRECTD33*
21,1,0.01102,0.05591,0,0,0.0*
21,1,0.00551,0.06142,0,0,0.0*
1,1,0.00551,0.00276,-0.02795*
1,1,0.00551,-0.00276,-0.02795*
1,1,0.00551,-0.00276,0.02795*
1,1,0.00551,0.00276,0.02795*
%
%ADD33ROUNDEDRECTD33*%
%ADD34R,0.03150X0.04724*%
D18*
X265601Y32449D02*
D03*
Y24969D02*
D03*
X245013Y32449D02*
D03*
Y24969D02*
D03*
X129176Y7694D02*
D03*
Y15175D02*
D03*
X144685Y7673D02*
D03*
Y15547D02*
D03*
D19*
X137842Y64848D02*
D03*
Y56848D02*
D03*
D20*
X52878Y27624D02*
D03*
X60878D02*
D03*
X30982Y38314D02*
D03*
X38982D02*
D03*
X39228Y47304D02*
D03*
X31228D02*
D03*
D21*
X223098Y31215D02*
D03*
X215618D02*
D03*
X215504Y13250D02*
D03*
X222984D02*
D03*
X235275Y13239D02*
D03*
X243149D02*
D03*
X137132Y41616D02*
D03*
X145006D02*
D03*
D22*
X7879Y37774D02*
D03*
Y45353D02*
D03*
D23*
X19985Y36445D02*
D03*
Y39004D02*
D03*
Y41563D02*
D03*
Y44122D02*
D03*
Y46681D02*
D03*
D24*
X168952Y36584D02*
D03*
X196511D02*
D03*
D25*
X28869Y21330D02*
D03*
Y5976D02*
D03*
D26*
X169261Y71198D02*
D03*
X196820D02*
D03*
D27*
X271555Y45571D02*
D03*
X263681D02*
D03*
X255807D02*
D03*
X247933D02*
D03*
X240059D02*
D03*
X232185D02*
D03*
X224311D02*
D03*
X216437D02*
D03*
Y104626D02*
D03*
X224311D02*
D03*
X232185D02*
D03*
X240059D02*
D03*
X247933D02*
D03*
X255807D02*
D03*
X263681D02*
D03*
X271555D02*
D03*
D28*
X210531Y55413D02*
D03*
Y63287D02*
D03*
Y71161D02*
D03*
Y79035D02*
D03*
Y86910D02*
D03*
Y94784D02*
D03*
D29*
X70921Y12795D02*
D03*
Y6890D02*
D03*
X116720D02*
D03*
Y12795D02*
D03*
D30*
X92528Y32874D02*
D03*
D31*
X83472Y10039D02*
D03*
X92528D02*
D03*
X101583D02*
D03*
D32*
X120177Y108563D02*
D03*
Y106595D02*
D03*
Y104626D02*
D03*
Y102657D02*
D03*
Y100689D02*
D03*
Y98721D02*
D03*
Y96752D02*
D03*
Y94784D02*
D03*
Y92815D02*
D03*
Y90847D02*
D03*
Y88878D02*
D03*
Y86910D02*
D03*
X153091D02*
D03*
Y88878D02*
D03*
Y90847D02*
D03*
Y92815D02*
D03*
Y94784D02*
D03*
Y96752D02*
D03*
Y98721D02*
D03*
Y100689D02*
D03*
Y102657D02*
D03*
Y104626D02*
D03*
Y106595D02*
D03*
Y108563D02*
D03*
D33*
X125807Y81279D02*
D03*
X127776D02*
D03*
X129744D02*
D03*
X131713D02*
D03*
X133681D02*
D03*
X135650D02*
D03*
X137618D02*
D03*
X139587D02*
D03*
X141555D02*
D03*
X143524D02*
D03*
X145492D02*
D03*
X147461D02*
D03*
Y114193D02*
D03*
X145492D02*
D03*
X143524D02*
D03*
X141555D02*
D03*
X139587D02*
D03*
X137618D02*
D03*
X135650D02*
D03*
X133681D02*
D03*
X131713D02*
D03*
X129744D02*
D03*
X127776D02*
D03*
X125807D02*
D03*
D34*
X63779Y68209D02*
D03*
Y95768D02*
D03*
M02*
